%TF.GenerationSoftware,KiCad,Pcbnew,10.0.3*%
%TF.CreationDate,2026-06-11T11:45:08-07:00*%
%TF.ProjectId,Li Charger,4c692043-6861-4726-9765-722e6b696361,rev?*%
%TF.SameCoordinates,Original*%
%TF.FileFunction,Paste,Top*%
%TF.FilePolarity,Positive*%
%FSLAX46Y46*%
G04 Gerber Fmt 4.6, Leading zero omitted, Abs format (unit mm)*
G04 Created by KiCad (PCBNEW 10.0.3) date 2026-06-11 11:45:08*
%MOMM*%
%LPD*%
G01*
G04 APERTURE LIST*
G04 Aperture macros list*
%AMRoundRect*
0 Rectangle with rounded corners*
0 $1 Rounding radius*
0 $2 $3 $4 $5 $6 $7 $8 $9 X,Y pos of 4 corners*
0 Add a 4 corners polygon primitive as box body*
4,1,4,$2,$3,$4,$5,$6,$7,$8,$9,$2,$3,0*
0 Add four circle primitives for the rounded corners*
1,1,$1+$1,$2,$3*
1,1,$1+$1,$4,$5*
1,1,$1+$1,$6,$7*
1,1,$1+$1,$8,$9*
0 Add four rect primitives between the rounded corners*
20,1,$1+$1,$2,$3,$4,$5,0*
20,1,$1+$1,$4,$5,$6,$7,0*
20,1,$1+$1,$6,$7,$8,$9,0*
20,1,$1+$1,$8,$9,$2,$3,0*%
G04 Aperture macros list end*
%ADD10RoundRect,0.243750X0.243750X0.456250X-0.243750X0.456250X-0.243750X-0.456250X0.243750X-0.456250X0*%
%ADD11RoundRect,0.250000X-0.450000X0.262500X-0.450000X-0.262500X0.450000X-0.262500X0.450000X0.262500X0*%
%ADD12RoundRect,0.250000X-0.250000X-0.475000X0.250000X-0.475000X0.250000X0.475000X-0.250000X0.475000X0*%
%ADD13RoundRect,0.250000X0.450000X-0.262500X0.450000X0.262500X-0.450000X0.262500X-0.450000X-0.262500X0*%
%ADD14RoundRect,0.250000X0.262500X0.450000X-0.262500X0.450000X-0.262500X-0.450000X0.262500X-0.450000X0*%
%ADD15RoundRect,0.185000X-0.195000X0.185000X-0.195000X-0.185000X0.195000X-0.185000X0.195000X0.185000X0*%
%ADD16RoundRect,0.075000X-0.075000X0.650000X-0.075000X-0.650000X0.075000X-0.650000X0.075000X0.650000X0*%
%ADD17RoundRect,0.243750X-0.456250X0.243750X-0.456250X-0.243750X0.456250X-0.243750X0.456250X0.243750X0*%
%ADD18RoundRect,0.250000X-0.475000X0.250000X-0.475000X-0.250000X0.475000X-0.250000X0.475000X0.250000X0*%
%ADD19R,0.700000X1.925000*%
%ADD20R,1.925000X0.700000*%
%ADD21RoundRect,0.175000X0.175000X0.425000X-0.175000X0.425000X-0.175000X-0.425000X0.175000X-0.425000X0*%
%ADD22RoundRect,0.190000X-0.190000X-0.410000X0.190000X-0.410000X0.190000X0.410000X-0.190000X0.410000X0*%
%ADD23RoundRect,0.200000X-0.200000X-0.400000X0.200000X-0.400000X0.200000X0.400000X-0.200000X0.400000X0*%
%ADD24RoundRect,0.175000X-0.175000X-0.425000X0.175000X-0.425000X0.175000X0.425000X-0.175000X0.425000X0*%
%ADD25RoundRect,0.190000X0.190000X0.410000X-0.190000X0.410000X-0.190000X-0.410000X0.190000X-0.410000X0*%
%ADD26RoundRect,0.200000X0.200000X0.400000X-0.200000X0.400000X-0.200000X-0.400000X0.200000X-0.400000X0*%
%ADD27O,1.100000X1.700000*%
%ADD28RoundRect,0.250000X0.475000X-0.250000X0.475000X0.250000X-0.475000X0.250000X-0.475000X-0.250000X0*%
%ADD29RoundRect,0.250000X-0.262500X-0.450000X0.262500X-0.450000X0.262500X0.450000X-0.262500X0.450000X0*%
G04 APERTURE END LIST*
D10*
%TO.C,D6*%
X140712500Y-98666250D03*
X138837500Y-98666250D03*
%TD*%
D11*
%TO.C,R1*%
X139025000Y-108455000D03*
X139025000Y-110280000D03*
%TD*%
D12*
%TO.C,C3*%
X138825000Y-82950000D03*
X140725000Y-82950000D03*
%TD*%
D10*
%TO.C,D3*%
X140712500Y-105406250D03*
X138837500Y-105406250D03*
%TD*%
D13*
%TO.C,R6*%
X144525000Y-90275000D03*
X144525000Y-88450000D03*
%TD*%
D14*
%TO.C,R4*%
X148187500Y-114700000D03*
X146362500Y-114700000D03*
%TD*%
D15*
%TO.C,U1*%
X147025000Y-106200000D03*
X146085000Y-106200000D03*
X147025000Y-107120000D03*
X146085000Y-107120000D03*
D16*
X147555000Y-104510000D03*
X147055000Y-104510000D03*
X146555000Y-104510000D03*
X146055000Y-104510000D03*
X145555000Y-104510000D03*
X145555000Y-108810000D03*
X146055000Y-108810000D03*
X146555000Y-108810000D03*
X147055000Y-108810000D03*
X147555000Y-108810000D03*
%TD*%
D10*
%TO.C,D10*%
X140712500Y-89679583D03*
X138837500Y-89679583D03*
%TD*%
D13*
%TO.C,R12*%
X157775000Y-92700000D03*
X157775000Y-90875000D03*
%TD*%
D17*
%TO.C,D2*%
X143525000Y-108450000D03*
X143525000Y-110325000D03*
%TD*%
D11*
%TO.C,R3*%
X148275000Y-110950000D03*
X148275000Y-112775000D03*
%TD*%
D10*
%TO.C,D9*%
X140712500Y-91926250D03*
X138837500Y-91926250D03*
%TD*%
D11*
%TO.C,R2*%
X141252500Y-108455000D03*
X141252500Y-110280000D03*
%TD*%
D18*
%TO.C,C1*%
X149525000Y-103750000D03*
X149525000Y-105650000D03*
%TD*%
D10*
%TO.C,D4*%
X140712500Y-103159583D03*
X138837500Y-103159583D03*
%TD*%
%TO.C,D8*%
X140712500Y-94172917D03*
X138837500Y-94172917D03*
%TD*%
%TO.C,D12*%
X140712500Y-85186250D03*
X138837500Y-85186250D03*
%TD*%
D19*
%TO.C,U2*%
X151235000Y-99305000D03*
X152505000Y-99305000D03*
X153775000Y-99305000D03*
D20*
X155287500Y-97792500D03*
X155287500Y-96522500D03*
X155287500Y-95252500D03*
X155287500Y-93982500D03*
X155287500Y-92712500D03*
D19*
X153775000Y-91200000D03*
X152505000Y-91200000D03*
X151235000Y-91200000D03*
X149965000Y-91200000D03*
X148695000Y-91200000D03*
D20*
X147182500Y-92712500D03*
X147182500Y-93982500D03*
X147182500Y-95252500D03*
X147182500Y-96522500D03*
X147182500Y-97792500D03*
D19*
X148695000Y-99305000D03*
X149965000Y-99305000D03*
%TD*%
D10*
%TO.C,D11*%
X140712500Y-87432917D03*
X138837500Y-87432917D03*
%TD*%
%TO.C,D5*%
X140712500Y-100912917D03*
X138837500Y-100912917D03*
%TD*%
%TO.C,D7*%
X140712500Y-96419583D03*
X138837500Y-96419583D03*
%TD*%
D14*
%TO.C,R7*%
X149850000Y-87950000D03*
X148025000Y-87950000D03*
%TD*%
D11*
%TO.C,R11*%
X158025000Y-95037500D03*
X158025000Y-96862500D03*
%TD*%
D17*
%TO.C,D1*%
X146025000Y-110950000D03*
X146025000Y-112825000D03*
%TD*%
D21*
%TO.C,J1*%
X149025000Y-85530000D03*
D22*
X147005000Y-85530000D03*
D23*
X145775000Y-85530000D03*
D24*
X148025000Y-85530000D03*
D25*
X150045000Y-85530000D03*
D26*
X151275000Y-85530000D03*
D27*
X152845000Y-85450000D03*
X152845000Y-81650000D03*
X144205000Y-85450000D03*
X144205000Y-81650000D03*
%TD*%
D11*
%TO.C,R8*%
X151775000Y-103787500D03*
X151775000Y-105612500D03*
%TD*%
D28*
%TO.C,C2*%
X150775000Y-109200000D03*
X150775000Y-107300000D03*
%TD*%
D11*
%TO.C,R10*%
X154775000Y-102287500D03*
X154775000Y-104112500D03*
%TD*%
%TO.C,R5*%
X143525000Y-112200000D03*
X143525000Y-114025000D03*
%TD*%
D29*
%TO.C,R9*%
X154950000Y-88450000D03*
X156775000Y-88450000D03*
%TD*%
M02*
