%TF.GenerationSoftware,KiCad,Pcbnew,10.0.3*%
%TF.CreationDate,2026-06-11T11:45:08-07:00*%
%TF.ProjectId,Li Charger,4c692043-6861-4726-9765-722e6b696361,rev?*%
%TF.SameCoordinates,Original*%
%TF.FileFunction,Copper,L1,Top*%
%TF.FilePolarity,Positive*%
%FSLAX46Y46*%
G04 Gerber Fmt 4.6, Leading zero omitted, Abs format (unit mm)*
G04 Created by KiCad (PCBNEW 10.0.3) date 2026-06-11 11:45:08*
%MOMM*%
%LPD*%
G01*
G04 APERTURE LIST*
G04 Aperture macros list*
%AMRoundRect*
0 Rectangle with rounded corners*
0 $1 Rounding radius*
0 $2 $3 $4 $5 $6 $7 $8 $9 X,Y pos of 4 corners*
0 Add a 4 corners polygon primitive as box body*
4,1,4,$2,$3,$4,$5,$6,$7,$8,$9,$2,$3,0*
0 Add four circle primitives for the rounded corners*
1,1,$1+$1,$2,$3*
1,1,$1+$1,$4,$5*
1,1,$1+$1,$6,$7*
1,1,$1+$1,$8,$9*
0 Add four rect primitives between the rounded corners*
20,1,$1+$1,$2,$3,$4,$5,0*
20,1,$1+$1,$4,$5,$6,$7,0*
20,1,$1+$1,$6,$7,$8,$9,0*
20,1,$1+$1,$8,$9,$2,$3,0*%
G04 Aperture macros list end*
%TA.AperFunction,SMDPad,CuDef*%
%ADD10RoundRect,0.243750X0.243750X0.456250X-0.243750X0.456250X-0.243750X-0.456250X0.243750X-0.456250X0*%
%TD*%
%TA.AperFunction,SMDPad,CuDef*%
%ADD11RoundRect,0.250000X-0.450000X0.262500X-0.450000X-0.262500X0.450000X-0.262500X0.450000X0.262500X0*%
%TD*%
%TA.AperFunction,SMDPad,CuDef*%
%ADD12RoundRect,0.250000X-0.250000X-0.475000X0.250000X-0.475000X0.250000X0.475000X-0.250000X0.475000X0*%
%TD*%
%TA.AperFunction,SMDPad,CuDef*%
%ADD13RoundRect,0.250000X0.450000X-0.262500X0.450000X0.262500X-0.450000X0.262500X-0.450000X-0.262500X0*%
%TD*%
%TA.AperFunction,SMDPad,CuDef*%
%ADD14RoundRect,0.250000X0.262500X0.450000X-0.262500X0.450000X-0.262500X-0.450000X0.262500X-0.450000X0*%
%TD*%
%TA.AperFunction,SMDPad,CuDef*%
%ADD15RoundRect,0.075000X-0.075000X0.650000X-0.075000X-0.650000X0.075000X-0.650000X0.075000X0.650000X0*%
%TD*%
%TA.AperFunction,HeatsinkPad*%
%ADD16R,1.890000X1.830000*%
%TD*%
%TA.AperFunction,SMDPad,CuDef*%
%ADD17RoundRect,0.243750X-0.456250X0.243750X-0.456250X-0.243750X0.456250X-0.243750X0.456250X0.243750X0*%
%TD*%
%TA.AperFunction,ComponentPad*%
%ADD18RoundRect,0.250000X0.400000X-0.750000X0.400000X0.750000X-0.400000X0.750000X-0.400000X-0.750000X0*%
%TD*%
%TA.AperFunction,ComponentPad*%
%ADD19O,1.300000X2.000000*%
%TD*%
%TA.AperFunction,SMDPad,CuDef*%
%ADD20RoundRect,0.250000X-0.475000X0.250000X-0.475000X-0.250000X0.475000X-0.250000X0.475000X0.250000X0*%
%TD*%
%TA.AperFunction,SMDPad,CuDef*%
%ADD21R,0.700000X1.925000*%
%TD*%
%TA.AperFunction,SMDPad,CuDef*%
%ADD22R,1.925000X0.700000*%
%TD*%
%TA.AperFunction,SMDPad,CuDef*%
%ADD23RoundRect,0.250000X0.750000X-0.250000X0.750000X0.250000X-0.750000X0.250000X-0.750000X-0.250000X0*%
%TD*%
%TA.AperFunction,SMDPad,CuDef*%
%ADD24RoundRect,0.175000X0.175000X0.425000X-0.175000X0.425000X-0.175000X-0.425000X0.175000X-0.425000X0*%
%TD*%
%TA.AperFunction,SMDPad,CuDef*%
%ADD25RoundRect,0.190000X-0.190000X-0.410000X0.190000X-0.410000X0.190000X0.410000X-0.190000X0.410000X0*%
%TD*%
%TA.AperFunction,SMDPad,CuDef*%
%ADD26RoundRect,0.200000X-0.200000X-0.400000X0.200000X-0.400000X0.200000X0.400000X-0.200000X0.400000X0*%
%TD*%
%TA.AperFunction,SMDPad,CuDef*%
%ADD27RoundRect,0.175000X-0.175000X-0.425000X0.175000X-0.425000X0.175000X0.425000X-0.175000X0.425000X0*%
%TD*%
%TA.AperFunction,SMDPad,CuDef*%
%ADD28RoundRect,0.190000X0.190000X0.410000X-0.190000X0.410000X-0.190000X-0.410000X0.190000X-0.410000X0*%
%TD*%
%TA.AperFunction,SMDPad,CuDef*%
%ADD29RoundRect,0.200000X0.200000X0.400000X-0.200000X0.400000X-0.200000X-0.400000X0.200000X-0.400000X0*%
%TD*%
%TA.AperFunction,ComponentPad*%
%ADD30O,1.100000X1.700000*%
%TD*%
%TA.AperFunction,SMDPad,CuDef*%
%ADD31RoundRect,0.250000X0.475000X-0.250000X0.475000X0.250000X-0.475000X0.250000X-0.475000X-0.250000X0*%
%TD*%
%TA.AperFunction,SMDPad,CuDef*%
%ADD32RoundRect,0.250000X-0.262500X-0.450000X0.262500X-0.450000X0.262500X0.450000X-0.262500X0.450000X0*%
%TD*%
%TA.AperFunction,ViaPad*%
%ADD33C,0.600000*%
%TD*%
%TA.AperFunction,Conductor*%
%ADD34C,0.300000*%
%TD*%
%TA.AperFunction,Conductor*%
%ADD35C,0.200000*%
%TD*%
%TA.AperFunction,Conductor*%
%ADD36C,0.254000*%
%TD*%
G04 APERTURE END LIST*
D10*
%TO.P,D6,1,K_1*%
%TO.N,Net-(D6-K)*%
X140712500Y-98666250D03*
%TO.P,D6,2,A_2*%
%TO.N,VBUS*%
X138837500Y-98666250D03*
%TD*%
D11*
%TO.P,R1,1*%
%TO.N,Net-(U1-ISET)*%
X139025000Y-108455000D03*
%TO.P,R1,2*%
%TO.N,GND*%
X139025000Y-110280000D03*
%TD*%
D12*
%TO.P,C3,1*%
%TO.N,VBUS*%
X138825000Y-82950000D03*
%TO.P,C3,2*%
%TO.N,GND*%
X140725000Y-82950000D03*
%TD*%
D10*
%TO.P,D3,1,K_1*%
%TO.N,Net-(D3-K)*%
X140712500Y-105406250D03*
%TO.P,D3,2,A_2*%
%TO.N,VBUS*%
X138837500Y-105406250D03*
%TD*%
D13*
%TO.P,R6,1*%
%TO.N,GND*%
X144525000Y-90275000D03*
%TO.P,R6,2*%
%TO.N,Net-(J1-CC2)*%
X144525000Y-88450000D03*
%TD*%
D14*
%TO.P,R4,1*%
%TO.N,VBAT*%
X148187500Y-114700000D03*
%TO.P,R4,2*%
%TO.N,Net-(D1-A)*%
X146362500Y-114700000D03*
%TD*%
D15*
%TO.P,U1,1,IN_1*%
%TO.N,VBUS*%
X147555000Y-104510000D03*
%TO.P,U1,2,ISET_2*%
%TO.N,Net-(U1-ISET)*%
X147055000Y-104510000D03*
%TO.P,U1,3,VSS_3*%
%TO.N,GND*%
X146555000Y-104510000D03*
%TO.P,U1,4,PRE-TERM_4*%
%TO.N,Net-(U1-PRE-TERM)*%
X146055000Y-104510000D03*
%TO.P,U1,5,PG_N_5*%
%TO.N,Net-(D2-K)*%
X145555000Y-104510000D03*
%TO.P,U1,6,NC_6*%
%TO.N,unconnected-(U1-NC-Pad6)*%
X145555000Y-108810000D03*
%TO.P,U1,7,ISET2_7*%
%TO.N,GND*%
X146055000Y-108810000D03*
%TO.P,U1,8,CHG_N_8*%
%TO.N,Net-(D1-K)*%
X146555000Y-108810000D03*
%TO.P,U1,9,TS_9*%
%TO.N,Net-(U1-TS)*%
X147055000Y-108810000D03*
%TO.P,U1,10,OUT_10*%
%TO.N,VBAT*%
X147555000Y-108810000D03*
D16*
%TO.P,U1,11,PAD_11*%
%TO.N,GND*%
X146555000Y-106660000D03*
%TD*%
D10*
%TO.P,D10,1,K_1*%
%TO.N,Net-(D10-K)*%
X140712500Y-89679583D03*
%TO.P,D10,2,A_2*%
%TO.N,VBUS*%
X138837500Y-89679583D03*
%TD*%
D13*
%TO.P,R12,1*%
%TO.N,Net-(U2-REFOUT)*%
X157775000Y-92700000D03*
%TO.P,R12,2*%
%TO.N,GND*%
X157775000Y-90875000D03*
%TD*%
D17*
%TO.P,D2,1,K_1*%
%TO.N,Net-(D2-K)*%
X143525000Y-108450000D03*
%TO.P,D2,2,A_2*%
%TO.N,Net-(D2-A)*%
X143525000Y-110325000D03*
%TD*%
D11*
%TO.P,R3,1*%
%TO.N,Net-(U1-TS)*%
X148275000Y-110950000D03*
%TO.P,R3,2*%
%TO.N,GND*%
X148275000Y-112775000D03*
%TD*%
D18*
%TO.P,J2,1,Pin_1_1*%
%TO.N,VBAT*%
X155025000Y-109700000D03*
D19*
%TO.P,J2,2,Pin_2_2*%
%TO.N,GND*%
X157025000Y-109700000D03*
%TD*%
D10*
%TO.P,D9,1,K_1*%
%TO.N,Net-(D9-K)*%
X140712500Y-91926250D03*
%TO.P,D9,2,A_2*%
%TO.N,VBUS*%
X138837500Y-91926250D03*
%TD*%
D11*
%TO.P,R2,1*%
%TO.N,Net-(U1-PRE-TERM)*%
X141252500Y-108455000D03*
%TO.P,R2,2*%
%TO.N,GND*%
X141252500Y-110280000D03*
%TD*%
D20*
%TO.P,C1,1*%
%TO.N,VBUS*%
X149525000Y-103750000D03*
%TO.P,C1,2*%
%TO.N,GND*%
X149525000Y-105650000D03*
%TD*%
D10*
%TO.P,D4,1,K_1*%
%TO.N,Net-(D4-K)*%
X140712500Y-103159583D03*
%TO.P,D4,2,A_2*%
%TO.N,VBUS*%
X138837500Y-103159583D03*
%TD*%
%TO.P,D8,1,K_1*%
%TO.N,Net-(D8-K)*%
X140712500Y-94172917D03*
%TO.P,D8,2,A_2*%
%TO.N,VBUS*%
X138837500Y-94172917D03*
%TD*%
%TO.P,D12,1,K_1*%
%TO.N,Net-(D12-K)*%
X140712500Y-85186250D03*
%TO.P,D12,2,A_2*%
%TO.N,VBUS*%
X138837500Y-85186250D03*
%TD*%
D21*
%TO.P,U2,1,LED1_1*%
%TO.N,Net-(D3-K)*%
X151235000Y-99305000D03*
%TO.P,U2,2,V-_2*%
%TO.N,GND*%
X152505000Y-99305000D03*
%TO.P,U2,3,V+_3*%
%TO.N,VBUS*%
X153775000Y-99305000D03*
D22*
%TO.P,U2,4,RLO_4*%
%TO.N,Net-(U2-RLO)*%
X155287500Y-97792500D03*
%TO.P,U2,5,SIG_5*%
%TO.N,VBAT*%
X155287500Y-96522500D03*
%TO.P,U2,6,RHI_6*%
%TO.N,Net-(U2-RHI)*%
X155287500Y-95252500D03*
%TO.P,U2,7,NC_7*%
%TO.N,unconnected-(U2-NC-Pad7)*%
X155287500Y-93982500D03*
%TO.P,U2,8,REFOUT_8*%
%TO.N,Net-(U2-REFOUT)*%
X155287500Y-92712500D03*
D21*
%TO.P,U2,9,NC_9*%
%TO.N,unconnected-(U2-NC-Pad9)*%
X153775000Y-91200000D03*
%TO.P,U2,10,REFADJ_10*%
%TO.N,GND*%
X152505000Y-91200000D03*
%TO.P,U2,11,MODE_11*%
%TO.N,VBUS*%
X151235000Y-91200000D03*
%TO.P,U2,12,LED10_12*%
%TO.N,Net-(D12-K)*%
X149965000Y-91200000D03*
%TO.P,U2,13,LED9_13*%
%TO.N,Net-(D11-K)*%
X148695000Y-91200000D03*
D22*
%TO.P,U2,14,LED8_14*%
%TO.N,Net-(D10-K)*%
X147182500Y-92712500D03*
%TO.P,U2,15,LED7_15*%
%TO.N,Net-(D9-K)*%
X147182500Y-93982500D03*
%TO.P,U2,16,LED6_16*%
%TO.N,Net-(D8-K)*%
X147182500Y-95252500D03*
%TO.P,U2,17,LED5_17*%
%TO.N,Net-(D7-K)*%
X147182500Y-96522500D03*
%TO.P,U2,18,LED4_18*%
%TO.N,Net-(D6-K)*%
X147182500Y-97792500D03*
D21*
%TO.P,U2,19,LED3_19*%
%TO.N,Net-(D5-K)*%
X148695000Y-99305000D03*
%TO.P,U2,20,LED2_20*%
%TO.N,Net-(D4-K)*%
X149965000Y-99305000D03*
%TD*%
D23*
%TO.P,GND,1*%
%TO.N,GND*%
X158925000Y-105227611D03*
%TD*%
D10*
%TO.P,D11,1,K_1*%
%TO.N,Net-(D11-K)*%
X140712500Y-87432917D03*
%TO.P,D11,2,A_2*%
%TO.N,VBUS*%
X138837500Y-87432917D03*
%TD*%
%TO.P,D5,1,K_1*%
%TO.N,Net-(D5-K)*%
X140712500Y-100912917D03*
%TO.P,D5,2,A_2*%
%TO.N,VBUS*%
X138837500Y-100912917D03*
%TD*%
%TO.P,D7,1,K_1*%
%TO.N,Net-(D7-K)*%
X140712500Y-96419583D03*
%TO.P,D7,2,A_2*%
%TO.N,VBUS*%
X138837500Y-96419583D03*
%TD*%
D14*
%TO.P,R7,1*%
%TO.N,Net-(J1-CC1)*%
X149850000Y-87950000D03*
%TO.P,R7,2*%
%TO.N,GND*%
X148025000Y-87950000D03*
%TD*%
D11*
%TO.P,R11,1*%
%TO.N,Net-(U2-RHI)*%
X158025000Y-95037500D03*
%TO.P,R11,2*%
%TO.N,GND*%
X158025000Y-96862500D03*
%TD*%
D17*
%TO.P,D1,1,K_1*%
%TO.N,Net-(D1-K)*%
X146025000Y-110950000D03*
%TO.P,D1,2,A_2*%
%TO.N,Net-(D1-A)*%
X146025000Y-112825000D03*
%TD*%
D24*
%TO.P,J1,A5,CC1_A5*%
%TO.N,Net-(J1-CC1)*%
X149025000Y-85530000D03*
D25*
%TO.P,J1,A9,VBUS_A9*%
%TO.N,VBUS*%
X147005000Y-85530000D03*
D26*
%TO.P,J1,A12,GND_A12*%
%TO.N,GND*%
X145775000Y-85530000D03*
D27*
%TO.P,J1,B5,CC2_B5*%
%TO.N,Net-(J1-CC2)*%
X148025000Y-85530000D03*
D28*
%TO.P,J1,B9,VBUS_B9*%
%TO.N,VBUS*%
X150045000Y-85530000D03*
D29*
%TO.P,J1,B12,GND_B12*%
%TO.N,GND*%
X151275000Y-85530000D03*
D30*
%TO.P,J1,SH,SHIELD_SH*%
X152845000Y-85450000D03*
X152845000Y-81650000D03*
X144205000Y-85450000D03*
X144205000Y-81650000D03*
%TD*%
D11*
%TO.P,R8,1*%
%TO.N,VBUS*%
X151775000Y-103787500D03*
%TO.P,R8,2*%
%TO.N,Net-(U2-RLO)*%
X151775000Y-105612500D03*
%TD*%
D31*
%TO.P,C2,1*%
%TO.N,VBAT*%
X150775000Y-109200000D03*
%TO.P,C2,2*%
%TO.N,GND*%
X150775000Y-107300000D03*
%TD*%
D11*
%TO.P,R10,1*%
%TO.N,Net-(U2-RLO)*%
X154775000Y-102287500D03*
%TO.P,R10,2*%
%TO.N,GND*%
X154775000Y-104112500D03*
%TD*%
%TO.P,R5,1*%
%TO.N,Net-(D2-A)*%
X143525000Y-112200000D03*
%TO.P,R5,2*%
%TO.N,VBAT*%
X143525000Y-114025000D03*
%TD*%
D32*
%TO.P,R9,1*%
%TO.N,VBUS*%
X154950000Y-88450000D03*
%TO.P,R9,2*%
%TO.N,Net-(U2-RHI)*%
X156775000Y-88450000D03*
%TD*%
D23*
%TO.P,VBUS,1*%
%TO.N,VBUS*%
X158925000Y-99227611D03*
%TD*%
%TO.P,VBAT,1*%
%TO.N,VBAT*%
X158925000Y-102227611D03*
%TD*%
D33*
%TO.N,GND*%
X152525000Y-96700000D03*
X153775000Y-105950000D03*
X142036079Y-111577611D03*
X155275000Y-90950000D03*
%TD*%
%TO.N,VBAT*%
D34*
X155025000Y-106513690D02*
X155025000Y-109700000D01*
X157313690Y-104225000D02*
X155025000Y-106513690D01*
X157975000Y-104225000D02*
X157313690Y-104225000D01*
X158925000Y-103275000D02*
X157975000Y-104225000D01*
X158925000Y-102375000D02*
X158925000Y-103275000D01*
X158925000Y-101200000D02*
X158925000Y-102375000D01*
X156950000Y-99225000D02*
X158925000Y-101200000D01*
X156950000Y-97572500D02*
X156950000Y-99225000D01*
X155900000Y-96522500D02*
X156950000Y-97572500D01*
X155287500Y-96522500D02*
X155900000Y-96522500D01*
D35*
X147671310Y-108125000D02*
X147555000Y-108241310D01*
X150775000Y-109200000D02*
X149700000Y-108125000D01*
X149700000Y-108125000D02*
X147671310Y-108125000D01*
X147555000Y-108241310D02*
X147555000Y-108810000D01*
%TO.N,VBUS*%
D34*
X147850000Y-103750000D02*
X149525000Y-103750000D01*
X147555000Y-104045000D02*
X147850000Y-103750000D01*
X147555000Y-104510000D02*
X147555000Y-104045000D01*
%TO.N,Net-(D6-K)*%
D36*
X142025000Y-98450000D02*
X141808750Y-98666250D01*
X144421130Y-95950000D02*
X143025000Y-95950000D01*
X143025000Y-95950000D02*
X142025000Y-96950000D01*
X146263630Y-97792500D02*
X144421130Y-95950000D01*
X141808750Y-98666250D02*
X140712500Y-98666250D01*
X142025000Y-96950000D02*
X142025000Y-98450000D01*
X147182500Y-97792500D02*
X146263630Y-97792500D01*
%TO.N,VBUS*%
X138837500Y-85186250D02*
X138837500Y-105406250D01*
D34*
X147005000Y-84930000D02*
X147005000Y-85530000D01*
D35*
X138825000Y-82950000D02*
X138825000Y-85173750D01*
D34*
X147005000Y-85780000D02*
X147005000Y-85933358D01*
X153242500Y-88450000D02*
X151235000Y-90457500D01*
X150045000Y-85530000D02*
X150045000Y-86577044D01*
X154950000Y-88450000D02*
X154950000Y-88141360D01*
D36*
X153775000Y-101787500D02*
X153775000Y-99305000D01*
D34*
X147355000Y-84580000D02*
X147005000Y-84930000D01*
D36*
X155025000Y-88525000D02*
X154950000Y-88450000D01*
X151235000Y-91200000D02*
X151235000Y-90490000D01*
X151235000Y-91200000D02*
X151235000Y-90587500D01*
D34*
X151235000Y-93160000D02*
X153775000Y-95700000D01*
X151235000Y-90457500D02*
X151235000Y-91200000D01*
D36*
X151775000Y-103787500D02*
X153775000Y-101787500D01*
D34*
X138825000Y-82150000D02*
X138825000Y-82950000D01*
X150045000Y-84930000D02*
X149695000Y-84580000D01*
D36*
X155025000Y-88950000D02*
X155025000Y-88525000D01*
D34*
X143525000Y-83450000D02*
X141525000Y-81450000D01*
X150045000Y-86577044D02*
X151235000Y-87767044D01*
X150045000Y-85530000D02*
X150045000Y-84930000D01*
X159075000Y-96552611D02*
X159075000Y-99113690D01*
X148025000Y-84580000D02*
X147355000Y-84580000D01*
X151235000Y-87767044D02*
X151235000Y-91200000D01*
X159902000Y-89443360D02*
X159902000Y-95725611D01*
X153775000Y-95700000D02*
X153775000Y-99305000D01*
X139525000Y-81450000D02*
X138825000Y-82150000D01*
X159902000Y-95725611D02*
X159075000Y-96552611D01*
D36*
X149525000Y-103750000D02*
X151737500Y-103750000D01*
D34*
X145525000Y-83450000D02*
X143525000Y-83450000D01*
X147005000Y-84930000D02*
X145525000Y-83450000D01*
X159075000Y-99113690D02*
X158961079Y-99227611D01*
X154950000Y-88450000D02*
X153242500Y-88450000D01*
X157458640Y-87000000D02*
X159902000Y-89443360D01*
X156091360Y-87000000D02*
X157458640Y-87000000D01*
X141525000Y-81450000D02*
X139525000Y-81450000D01*
X154950000Y-88141360D02*
X156091360Y-87000000D01*
D36*
X151737500Y-103750000D02*
X151775000Y-103787500D01*
D34*
X151235000Y-91200000D02*
X151235000Y-93160000D01*
D35*
X138825000Y-85173750D02*
X138837500Y-85186250D01*
D34*
X149695000Y-84580000D02*
X148025000Y-84580000D01*
%TO.N,Net-(U1-ISET)*%
D35*
X143525000Y-104346131D02*
X144848131Y-103023000D01*
X144848131Y-103023000D02*
X146848000Y-103023000D01*
X139025000Y-108455000D02*
X139755256Y-108455000D01*
X139755256Y-108455000D02*
X140567756Y-107642500D01*
X141478630Y-107642500D02*
X143525000Y-105596130D01*
X143525000Y-105596130D02*
X143525000Y-104346131D01*
X146848000Y-103023000D02*
X147055000Y-103230000D01*
X140567756Y-107642500D02*
X141478630Y-107642500D01*
X147055000Y-103230000D02*
X147055000Y-104510000D01*
%TO.N,GND*%
X157775000Y-90875000D02*
X155350000Y-90875000D01*
X154636079Y-90227611D02*
X154636079Y-90827611D01*
X156277756Y-87450000D02*
X155762500Y-87965256D01*
X148275000Y-112775000D02*
X147450000Y-111950000D01*
X151275000Y-85530000D02*
X152765000Y-85530000D01*
X146555000Y-104510000D02*
X146555000Y-106660000D01*
X154636079Y-90827611D02*
X154761079Y-90952611D01*
X145025000Y-111950000D02*
X145025000Y-112700000D01*
X149525000Y-107016532D02*
X149525000Y-105650000D01*
X143128999Y-88597773D02*
X142231226Y-87700000D01*
X140725000Y-82950000D02*
X140725000Y-82200000D01*
X146275000Y-89950000D02*
X145950000Y-90275000D01*
X154761079Y-90952611D02*
X154763690Y-90950000D01*
X146055000Y-108810000D02*
X146055000Y-107160000D01*
X157272244Y-87450000D02*
X156277756Y-87450000D01*
X144205000Y-85450000D02*
X145695000Y-85450000D01*
X147450000Y-111950000D02*
X145025000Y-111950000D01*
X147525000Y-87950000D02*
X146275000Y-89200000D01*
X155762500Y-87965256D02*
X155762500Y-89134744D01*
X157025000Y-109700000D02*
X157025000Y-107163690D01*
X144525000Y-90275000D02*
X143704000Y-90275000D01*
X150775000Y-107300000D02*
X152425000Y-107300000D01*
X145338604Y-83900000D02*
X145775000Y-84336396D01*
X141025000Y-81900000D02*
X141338604Y-81900000D01*
X155261079Y-89627611D02*
X155261079Y-90936079D01*
X141252500Y-111094032D02*
X141252500Y-110280000D01*
X158025000Y-96862500D02*
X159452000Y-95435500D01*
X142231226Y-87700000D02*
X142231226Y-84456226D01*
X146055000Y-107160000D02*
X146555000Y-106660000D01*
X152765000Y-85530000D02*
X152845000Y-85450000D01*
X148025000Y-87950000D02*
X147525000Y-87950000D01*
X155269633Y-89627611D02*
X155261079Y-89627611D01*
X143338604Y-83900000D02*
X145338604Y-83900000D01*
X145695000Y-85450000D02*
X145775000Y-85530000D01*
X152505000Y-90557500D02*
X153125000Y-89937500D01*
X143129000Y-89700000D02*
X143128999Y-88597773D01*
X154763690Y-90950000D02*
X155275000Y-90950000D01*
X145775000Y-84336396D02*
X145775000Y-85530000D01*
X144525000Y-113200000D02*
X143025000Y-113200000D01*
X146555000Y-106660000D02*
X146985000Y-106660000D01*
X150775000Y-107300000D02*
X149808468Y-107300000D01*
X146275000Y-89200000D02*
X146275000Y-89950000D01*
X146985000Y-106660000D02*
X147995000Y-105650000D01*
X145950000Y-90275000D02*
X144525000Y-90275000D01*
X149808468Y-107300000D02*
X149525000Y-107016532D01*
X141252500Y-110280000D02*
X139025000Y-110280000D01*
X141275000Y-110302500D02*
X141252500Y-110280000D01*
X154345968Y-89937500D02*
X154636079Y-90227611D01*
X152505000Y-91200000D02*
X152505000Y-90557500D01*
X143025000Y-113200000D02*
X142036079Y-112211079D01*
X154775000Y-104112500D02*
X154775000Y-104950000D01*
X143704000Y-90275000D02*
X143129000Y-89700000D01*
X155350000Y-90875000D02*
X155275000Y-90950000D01*
X142036079Y-112211079D02*
X142036079Y-111577611D01*
X153125000Y-89937500D02*
X154345968Y-89937500D01*
X157025000Y-107163690D02*
X158961079Y-105227611D01*
X142036079Y-111577611D02*
X141736079Y-111577611D01*
X155261079Y-90936079D02*
X155275000Y-90950000D01*
X152505000Y-96720000D02*
X152525000Y-96700000D01*
X141736079Y-111577611D02*
X141252500Y-111094032D01*
X147995000Y-105650000D02*
X149525000Y-105650000D01*
X159452000Y-95435500D02*
X159452000Y-89629756D01*
X140725000Y-82200000D02*
X141025000Y-81900000D01*
X155762500Y-89134744D02*
X155269633Y-89627611D01*
X159452000Y-89629756D02*
X157272244Y-87450000D01*
X152425000Y-107300000D02*
X153775000Y-105950000D01*
X152505000Y-99305000D02*
X152505000Y-96720000D01*
X142231226Y-84456226D02*
X140725000Y-82950000D01*
X141338604Y-81900000D02*
X143338604Y-83900000D01*
X154775000Y-104950000D02*
X153775000Y-105950000D01*
X145025000Y-112700000D02*
X144525000Y-113200000D01*
%TO.N,Net-(D3-K)*%
X144525000Y-101015686D02*
X144525000Y-98700000D01*
X143525000Y-98450000D02*
X143365144Y-98609856D01*
X149655500Y-101527000D02*
X145036314Y-101527000D01*
X141775000Y-102700000D02*
X141775000Y-104343750D01*
X144525000Y-98700000D02*
X144275000Y-98450000D01*
X141775000Y-104343750D02*
X140712500Y-105406250D01*
X151235000Y-99305000D02*
X151235000Y-99947500D01*
X144275000Y-98450000D02*
X143525000Y-98450000D01*
X145036314Y-101527000D02*
X144525000Y-101015686D01*
X151235000Y-99947500D02*
X149655500Y-101527000D01*
X142175000Y-102300000D02*
X141775000Y-102700000D01*
X143365144Y-98609856D02*
X143365144Y-99509856D01*
X142175000Y-100700000D02*
X142175000Y-102300000D01*
X143365144Y-99509856D02*
X142175000Y-100700000D01*
%TO.N,Net-(J1-CC2)*%
X148025000Y-86130000D02*
X148025000Y-85530000D01*
X144525000Y-88450000D02*
X145705000Y-88450000D01*
X145705000Y-88450000D02*
X148025000Y-86130000D01*
%TO.N,VBAT*%
D34*
X155025000Y-109700000D02*
X153025000Y-109700000D01*
D36*
X145100000Y-114025000D02*
X143525000Y-114025000D01*
X148970928Y-110110500D02*
X149302000Y-110441572D01*
X145275000Y-114200000D02*
X145100000Y-114025000D01*
X145802000Y-115727000D02*
X145275000Y-115200000D01*
D34*
X153025000Y-109700000D02*
X152525000Y-109200000D01*
D36*
X147775000Y-110110500D02*
X148970928Y-110110500D01*
X149302000Y-113585500D02*
X148187500Y-114700000D01*
X147555000Y-109890500D02*
X147775000Y-110110500D01*
X148187500Y-114700000D02*
X147160500Y-115727000D01*
X147555000Y-108810000D02*
X147555000Y-109890500D01*
X147160500Y-115727000D02*
X145802000Y-115727000D01*
D34*
X152525000Y-109200000D02*
X150775000Y-109200000D01*
D36*
X145275000Y-115200000D02*
X145275000Y-114200000D01*
X149302000Y-110441572D02*
X149302000Y-113585500D01*
%TO.N,Net-(D1-A)*%
X146362500Y-114700000D02*
X146362500Y-113162500D01*
X146362500Y-113162500D02*
X146025000Y-112825000D01*
%TO.N,Net-(U1-PRE-TERM)*%
X146055000Y-103714408D02*
X146055000Y-104510000D01*
X142346026Y-107378974D02*
X142988078Y-107378974D01*
X143953974Y-104521026D02*
X145025000Y-103450000D01*
X141275000Y-108450000D02*
X142346026Y-107378974D01*
X145025000Y-103450000D02*
X145790592Y-103450000D01*
X143953974Y-106413078D02*
X143953974Y-104521026D01*
X145790592Y-103450000D02*
X146055000Y-103714408D01*
X142988078Y-107378974D02*
X143953974Y-106413078D01*
%TO.N,Net-(D2-K)*%
D35*
X144380974Y-104697896D02*
X145201870Y-103877000D01*
X145605000Y-104460000D02*
X145555000Y-104510000D01*
D36*
X143525000Y-108450000D02*
X143775000Y-108200000D01*
D35*
X144380974Y-106589947D02*
X144380974Y-104697896D01*
X143525000Y-108450000D02*
X143525000Y-107445922D01*
X143525000Y-107445922D02*
X144380974Y-106589947D01*
X145605000Y-103877000D02*
X145605000Y-104460000D01*
X145201870Y-103877000D02*
X145605000Y-103877000D01*
%TO.N,Net-(D1-K)*%
X146555000Y-110420000D02*
X146555000Y-108810000D01*
X146025000Y-110950000D02*
X146555000Y-110420000D01*
%TO.N,Net-(U1-TS)*%
X147575000Y-110950000D02*
X147055000Y-110430000D01*
X147055000Y-110430000D02*
X147055000Y-108810000D01*
X148275000Y-110950000D02*
X147575000Y-110950000D01*
%TO.N,Net-(D10-K)*%
D36*
X141775000Y-91950000D02*
X141775000Y-90742083D01*
X147182500Y-92712500D02*
X142537500Y-92712500D01*
X142537500Y-92712500D02*
X141775000Y-91950000D01*
X141775000Y-90742083D02*
X140712500Y-89679583D01*
%TO.N,Net-(U2-REFOUT)*%
X155300000Y-92700000D02*
X155287500Y-92712500D01*
X157775000Y-92700000D02*
X155300000Y-92700000D01*
%TO.N,Net-(D2-A)*%
D35*
X143525000Y-112200000D02*
X143525000Y-110325000D01*
%TO.N,Net-(D9-K)*%
D36*
X144525000Y-93450000D02*
X142236250Y-93450000D01*
X145057500Y-93982500D02*
X144525000Y-93450000D01*
X142236250Y-93450000D02*
X140712500Y-91926250D01*
X147182500Y-93982500D02*
X145057500Y-93982500D01*
%TO.N,Net-(D4-K)*%
D35*
X143405288Y-97759856D02*
X142965144Y-98200000D01*
X141775000Y-100454287D02*
X141775000Y-102097083D01*
X141775000Y-102097083D02*
X140712500Y-103159583D01*
X142965144Y-99264143D02*
X141775000Y-100454287D01*
X149965000Y-99305000D02*
X149965000Y-99947500D01*
X144584856Y-97759856D02*
X143405288Y-97759856D01*
X145202000Y-101127000D02*
X145025000Y-100950000D01*
X142965144Y-98200000D02*
X142965144Y-99264143D01*
X148785500Y-101127000D02*
X145202000Y-101127000D01*
X145025000Y-98200000D02*
X144584856Y-97759856D01*
X149965000Y-99947500D02*
X148785500Y-101127000D01*
X145025000Y-100950000D02*
X145025000Y-98200000D01*
%TO.N,Net-(D8-K)*%
D36*
X147182500Y-95252500D02*
X144931370Y-95252500D01*
X143878870Y-94200000D02*
X140739583Y-94200000D01*
X140739583Y-94200000D02*
X140712500Y-94172917D01*
X144931370Y-95252500D02*
X143878870Y-94200000D01*
%TO.N,Net-(D12-K)*%
X149965000Y-91200000D02*
X149965000Y-89983500D01*
X143128870Y-91450000D02*
X142702000Y-91023130D01*
X142702000Y-88818547D02*
X141804226Y-87920774D01*
X141804226Y-87920774D02*
X141804226Y-86277976D01*
X141804226Y-86277976D02*
X140712500Y-85186250D01*
X146775000Y-89700000D02*
X146775000Y-91200000D01*
X149181500Y-89200000D02*
X147275000Y-89200000D01*
X147275000Y-89200000D02*
X146775000Y-89700000D01*
X146775000Y-91200000D02*
X146525000Y-91450000D01*
X149965000Y-89983500D02*
X149181500Y-89200000D01*
X142702000Y-91023130D02*
X142702000Y-88818547D01*
X146525000Y-91450000D02*
X143128870Y-91450000D01*
%TO.N,Net-(U2-RLO)*%
X153937500Y-102287500D02*
X154775000Y-102287500D01*
X153025000Y-104362500D02*
X153025000Y-103200000D01*
X151775000Y-105612500D02*
X153025000Y-104362500D01*
X153025000Y-103200000D02*
X153937500Y-102287500D01*
D35*
X154775000Y-102287500D02*
X154775000Y-98305000D01*
X154775000Y-98305000D02*
X155287500Y-97792500D01*
%TO.N,Net-(U2-RHI)*%
X159052000Y-94010500D02*
X158025000Y-95037500D01*
X156775000Y-88450000D02*
X157706558Y-88450000D01*
D36*
X157775000Y-95200000D02*
X155340000Y-95200000D01*
D35*
X157706558Y-88450000D02*
X159052000Y-89795442D01*
X159052000Y-89795442D02*
X159052000Y-94010500D01*
D36*
X155340000Y-95200000D02*
X155287500Y-95252500D01*
%TO.N,Net-(D11-K)*%
D35*
X147525000Y-89700000D02*
X147275000Y-89950000D01*
X146775000Y-91950000D02*
X143025000Y-91950000D01*
X148695000Y-91200000D02*
X148695000Y-89870000D01*
X142275000Y-91200000D02*
X142275000Y-88995417D01*
X142275000Y-88995417D02*
X140712500Y-87432917D01*
X147275000Y-91450000D02*
X146775000Y-91950000D01*
X147275000Y-89950000D02*
X147275000Y-91450000D01*
X148525000Y-91030000D02*
X148695000Y-91200000D01*
X148695000Y-89870000D02*
X148525000Y-89700000D01*
X148525000Y-89700000D02*
X147525000Y-89700000D01*
X143025000Y-91950000D02*
X142275000Y-91200000D01*
%TO.N,Net-(D7-K)*%
X142084013Y-95200000D02*
X144275000Y-95200000D01*
X145597500Y-96522500D02*
X147182500Y-96522500D01*
X140815417Y-96522500D02*
X140712500Y-96419583D01*
X144275000Y-95200000D02*
X145597500Y-96522500D01*
X140864430Y-96419583D02*
X142084013Y-95200000D01*
X140712500Y-96419583D02*
X140864430Y-96419583D01*
%TO.N,Net-(D5-K)*%
D36*
X142538144Y-99087273D02*
X140712500Y-100912917D01*
X142538144Y-97186856D02*
X142538144Y-99087273D01*
X148695000Y-99305000D02*
X148695000Y-100280000D01*
X144525000Y-96700000D02*
X143025000Y-96700000D01*
X148695000Y-100280000D02*
X148275000Y-100700000D01*
X145525000Y-100700000D02*
X145525000Y-97700000D01*
X145525000Y-97700000D02*
X144525000Y-96700000D01*
X143025000Y-96700000D02*
X142538144Y-97186856D01*
X148275000Y-100700000D02*
X145525000Y-100700000D01*
%TO.N,Net-(J1-CC1)*%
D35*
X149850000Y-87950000D02*
X149025000Y-87125000D01*
X149025000Y-87125000D02*
X149025000Y-85530000D01*
%TD*%
M02*
