%TF.GenerationSoftware,KiCad,Pcbnew,10.0.3*%
%TF.CreationDate,2026-06-11T11:45:09-07:00*%
%TF.ProjectId,Li Charger,4c692043-6861-4726-9765-722e6b696361,rev?*%
%TF.SameCoordinates,Original*%
%TF.FileFunction,Legend,Top*%
%TF.FilePolarity,Positive*%
%FSLAX46Y46*%
G04 Gerber Fmt 4.6, Leading zero omitted, Abs format (unit mm)*
G04 Created by KiCad (PCBNEW 10.0.3) date 2026-06-11 11:45:09*
%MOMM*%
%LPD*%
G01*
G04 APERTURE LIST*
%ADD10C,0.100000*%
%ADD11C,0.200000*%
%ADD12C,0.300000*%
%ADD13C,0.150000*%
%ADD14C,0.120000*%
G04 APERTURE END LIST*
D10*
X160991233Y-79648773D02*
X156041233Y-82948773D01*
X158126990Y-83100301D01*
X154823772Y-85883767D01*
X159873772Y-82533767D01*
X157841233Y-82548773D01*
X160991233Y-79648773D01*
G36*
X157841233Y-82548773D02*
G01*
X159873772Y-82533767D01*
X154823772Y-85883767D01*
X158126990Y-83100301D01*
X156041233Y-82948773D01*
X160991233Y-79648773D01*
X157841233Y-82548773D01*
G37*
D11*
X157579501Y-106340153D02*
X156817596Y-106340153D01*
D10*
G36*
X135882554Y-85652223D02*
G01*
X135725444Y-85652223D01*
X135725444Y-84894093D01*
X135663956Y-84894093D01*
X135663956Y-84872599D01*
X135746571Y-84581462D01*
X135882554Y-84581462D01*
X135882554Y-85652223D01*
G37*
G36*
X136490663Y-84587596D02*
G01*
X136519052Y-84603541D01*
X136535926Y-84628622D01*
X136542131Y-84666153D01*
X136542131Y-85567531D01*
X136535926Y-85605063D01*
X136519052Y-85630144D01*
X136490663Y-85646088D01*
X136445778Y-85652223D01*
X136112447Y-85652223D01*
X136068337Y-85646127D01*
X136040353Y-85630248D01*
X136023655Y-85605174D01*
X136017498Y-85567531D01*
X136017498Y-85515447D01*
X136174607Y-85515447D01*
X136385694Y-85515447D01*
X136385694Y-84718238D01*
X136174607Y-84718238D01*
X136174607Y-85515447D01*
X136017498Y-85515447D01*
X136017498Y-84666153D01*
X136023724Y-84628669D01*
X136040674Y-84603585D01*
X136069239Y-84587614D01*
X136114462Y-84581462D01*
X136445778Y-84581462D01*
X136490663Y-84587596D01*
G37*
G36*
X137143280Y-84587596D02*
G01*
X137171669Y-84603541D01*
X137188543Y-84628622D01*
X137194748Y-84666153D01*
X137194748Y-85567531D01*
X137188543Y-85605063D01*
X137171669Y-85630144D01*
X137143280Y-85646088D01*
X137098394Y-85652223D01*
X136765064Y-85652223D01*
X136720954Y-85646127D01*
X136692970Y-85630248D01*
X136676272Y-85605174D01*
X136670115Y-85567531D01*
X136670115Y-85515447D01*
X136827224Y-85515447D01*
X137038311Y-85515447D01*
X137038311Y-84718238D01*
X136827224Y-84718238D01*
X136827224Y-85515447D01*
X136670115Y-85515447D01*
X136670115Y-84666153D01*
X136676341Y-84628669D01*
X136693291Y-84603585D01*
X136721856Y-84587614D01*
X136767079Y-84581462D01*
X137098394Y-84581462D01*
X137143280Y-84587596D01*
G37*
G36*
X138048866Y-84601307D02*
G01*
X137475017Y-85652223D01*
X137382815Y-85652223D01*
X137382815Y-85633049D01*
X137957336Y-84581462D01*
X138048866Y-84581462D01*
X138048866Y-84601307D01*
G37*
G36*
X138097203Y-85114753D02*
G01*
X138121639Y-85130032D01*
X138136757Y-85155039D01*
X138142472Y-85193718D01*
X138142472Y-85567531D01*
X138136757Y-85606209D01*
X138121639Y-85631217D01*
X138097203Y-85646496D01*
X138059795Y-85652223D01*
X137875331Y-85652223D01*
X137837956Y-85646497D01*
X137813538Y-85631222D01*
X137798428Y-85606215D01*
X137792716Y-85567531D01*
X137792716Y-85550617D01*
X137906106Y-85550617D01*
X138027677Y-85550617D01*
X138027677Y-85210631D01*
X137906106Y-85210631D01*
X137906106Y-85550617D01*
X137792716Y-85550617D01*
X137792716Y-85193718D01*
X137798428Y-85155034D01*
X137813538Y-85130027D01*
X137837956Y-85114751D01*
X137875331Y-85109026D01*
X138059795Y-85109026D01*
X138097203Y-85114753D01*
G37*
G36*
X137592353Y-84587189D02*
G01*
X137616789Y-84602468D01*
X137631907Y-84627475D01*
X137637622Y-84666153D01*
X137637622Y-85039967D01*
X137631907Y-85078645D01*
X137616789Y-85103652D01*
X137592353Y-85118931D01*
X137554945Y-85124658D01*
X137370542Y-85124658D01*
X137333134Y-85118931D01*
X137308699Y-85103652D01*
X137293581Y-85078645D01*
X137287866Y-85039967D01*
X137287866Y-85023053D01*
X137401256Y-85023053D01*
X137522889Y-85023053D01*
X137522889Y-84683067D01*
X137401256Y-84683067D01*
X137401256Y-85023053D01*
X137287866Y-85023053D01*
X137287866Y-84666153D01*
X137293581Y-84627475D01*
X137308699Y-84602468D01*
X137333134Y-84587189D01*
X137370542Y-84581462D01*
X137554945Y-84581462D01*
X137592353Y-84587189D01*
G37*
G36*
X136303584Y-86837632D02*
G01*
X136332343Y-86853634D01*
X136349377Y-86878722D01*
X136355626Y-86916153D01*
X136355626Y-87817531D01*
X136349422Y-87855068D01*
X136332556Y-87880148D01*
X136304185Y-87896090D01*
X136259333Y-87902223D01*
X135937604Y-87902223D01*
X135892348Y-87896069D01*
X135863765Y-87880095D01*
X135846807Y-87855010D01*
X135840579Y-87817531D01*
X135840579Y-87577868D01*
X135997688Y-87577868D01*
X135997688Y-87765447D01*
X136197173Y-87765447D01*
X136197173Y-87445000D01*
X135931437Y-87445000D01*
X135887327Y-87438905D01*
X135859343Y-87423025D01*
X135842645Y-87397951D01*
X135836488Y-87360309D01*
X135836488Y-87308224D01*
X135992925Y-87308224D01*
X136197173Y-87308224D01*
X136197173Y-86968238D01*
X135992925Y-86968238D01*
X135992925Y-87308224D01*
X135836488Y-87308224D01*
X135836488Y-86916153D01*
X135842645Y-86878511D01*
X135859343Y-86853437D01*
X135887327Y-86837557D01*
X135931437Y-86831462D01*
X136257990Y-86831462D01*
X136303584Y-86837632D01*
G37*
G36*
X136957202Y-86837596D02*
G01*
X136985591Y-86853541D01*
X137002465Y-86878622D01*
X137008670Y-86916153D01*
X137008670Y-87817531D01*
X137002465Y-87855063D01*
X136985591Y-87880144D01*
X136957202Y-87896088D01*
X136912316Y-87902223D01*
X136578986Y-87902223D01*
X136534875Y-87896127D01*
X136506892Y-87880248D01*
X136490194Y-87855174D01*
X136484036Y-87817531D01*
X136484036Y-87765447D01*
X136641146Y-87765447D01*
X136852233Y-87765447D01*
X136852233Y-86968238D01*
X136641146Y-86968238D01*
X136641146Y-87765447D01*
X136484036Y-87765447D01*
X136484036Y-86916153D01*
X136490263Y-86878669D01*
X136507213Y-86853585D01*
X136535778Y-86837614D01*
X136581001Y-86831462D01*
X136912316Y-86831462D01*
X136957202Y-86837596D01*
G37*
G36*
X137862787Y-86851307D02*
G01*
X137288939Y-87902223D01*
X137196737Y-87902223D01*
X137196737Y-87883049D01*
X137771257Y-86831462D01*
X137862787Y-86831462D01*
X137862787Y-86851307D01*
G37*
G36*
X137911125Y-87364753D02*
G01*
X137935561Y-87380032D01*
X137950679Y-87405039D01*
X137956393Y-87443718D01*
X137956393Y-87817531D01*
X137950679Y-87856209D01*
X137935561Y-87881217D01*
X137911125Y-87896496D01*
X137873717Y-87902223D01*
X137689253Y-87902223D01*
X137651878Y-87896497D01*
X137627460Y-87881222D01*
X137612350Y-87856215D01*
X137606638Y-87817531D01*
X137606638Y-87800617D01*
X137720027Y-87800617D01*
X137841599Y-87800617D01*
X137841599Y-87460631D01*
X137720027Y-87460631D01*
X137720027Y-87800617D01*
X137606638Y-87800617D01*
X137606638Y-87443718D01*
X137612350Y-87405034D01*
X137627460Y-87380027D01*
X137651878Y-87364751D01*
X137689253Y-87359026D01*
X137873717Y-87359026D01*
X137911125Y-87364753D01*
G37*
G36*
X137406275Y-86837189D02*
G01*
X137430711Y-86852468D01*
X137445829Y-86877475D01*
X137451543Y-86916153D01*
X137451543Y-87289967D01*
X137445829Y-87328645D01*
X137430711Y-87353652D01*
X137406275Y-87368931D01*
X137368867Y-87374658D01*
X137184464Y-87374658D01*
X137147056Y-87368931D01*
X137122620Y-87353652D01*
X137107502Y-87328645D01*
X137101788Y-87289967D01*
X137101788Y-87273053D01*
X137215177Y-87273053D01*
X137336810Y-87273053D01*
X137336810Y-86933067D01*
X137215177Y-86933067D01*
X137215177Y-87273053D01*
X137101788Y-87273053D01*
X137101788Y-86916153D01*
X137107502Y-86877475D01*
X137122620Y-86852468D01*
X137147056Y-86837189D01*
X137184464Y-86831462D01*
X137368867Y-86831462D01*
X137406275Y-86837189D01*
G37*
G36*
X136313030Y-89093112D02*
G01*
X136341014Y-89108992D01*
X136357712Y-89134066D01*
X136363869Y-89171708D01*
X136363869Y-89460220D01*
X136359106Y-89496437D01*
X136345520Y-89525940D01*
X136322897Y-89550346D01*
X136231306Y-89604812D01*
X136326256Y-89660560D01*
X136348266Y-89684559D01*
X136361746Y-89714820D01*
X136366556Y-89753311D01*
X136366556Y-90073086D01*
X136360352Y-90110623D01*
X136343486Y-90135703D01*
X136315115Y-90151645D01*
X136270263Y-90157778D01*
X135932780Y-90157778D01*
X135888670Y-90151682D01*
X135860686Y-90135803D01*
X135843988Y-90110729D01*
X135837831Y-90073086D01*
X135837831Y-89753311D01*
X135840950Y-89727971D01*
X135996345Y-89727971D01*
X135996345Y-90024909D01*
X136207431Y-90024909D01*
X136207431Y-89727971D01*
X136102224Y-89667765D01*
X135996345Y-89727971D01*
X135840950Y-89727971D01*
X135842576Y-89714765D01*
X135855850Y-89684506D01*
X135877459Y-89660560D01*
X135972409Y-89604812D01*
X135880879Y-89550346D01*
X135857789Y-89525501D01*
X135844027Y-89495964D01*
X135841756Y-89479027D01*
X135999092Y-89479027D01*
X136102224Y-89541247D01*
X136206027Y-89479027D01*
X136206027Y-89219885D01*
X135999092Y-89219885D01*
X135999092Y-89479027D01*
X135841756Y-89479027D01*
X135839235Y-89460220D01*
X135839235Y-89171708D01*
X135845462Y-89134224D01*
X135862412Y-89109140D01*
X135890977Y-89093169D01*
X135936200Y-89087017D01*
X136268920Y-89087017D01*
X136313030Y-89093112D01*
G37*
G36*
X136968925Y-89093151D02*
G01*
X136997314Y-89109096D01*
X137014188Y-89134177D01*
X137020394Y-89171708D01*
X137020394Y-90073086D01*
X137014188Y-90110618D01*
X136997314Y-90135699D01*
X136968925Y-90151643D01*
X136924040Y-90157778D01*
X136590710Y-90157778D01*
X136546599Y-90151682D01*
X136518615Y-90135803D01*
X136501918Y-90110729D01*
X136495760Y-90073086D01*
X136495760Y-90021002D01*
X136652869Y-90021002D01*
X136863956Y-90021002D01*
X136863956Y-89223793D01*
X136652869Y-89223793D01*
X136652869Y-90021002D01*
X136495760Y-90021002D01*
X136495760Y-89171708D01*
X136501987Y-89134224D01*
X136518937Y-89109140D01*
X136547502Y-89093169D01*
X136592725Y-89087017D01*
X136924040Y-89087017D01*
X136968925Y-89093151D01*
G37*
G36*
X137874511Y-89106862D02*
G01*
X137300662Y-90157778D01*
X137208461Y-90157778D01*
X137208461Y-90138604D01*
X137782981Y-89087017D01*
X137874511Y-89087017D01*
X137874511Y-89106862D01*
G37*
G36*
X137922849Y-89620308D02*
G01*
X137947284Y-89635587D01*
X137962402Y-89660594D01*
X137968117Y-89699273D01*
X137968117Y-90073086D01*
X137962402Y-90111764D01*
X137947284Y-90136772D01*
X137922849Y-90152051D01*
X137885441Y-90157778D01*
X137700976Y-90157778D01*
X137663602Y-90152052D01*
X137639184Y-90136777D01*
X137624074Y-90111770D01*
X137618361Y-90073086D01*
X137618361Y-90056172D01*
X137731751Y-90056172D01*
X137853323Y-90056172D01*
X137853323Y-89716186D01*
X137731751Y-89716186D01*
X137731751Y-90056172D01*
X137618361Y-90056172D01*
X137618361Y-89699273D01*
X137624074Y-89660589D01*
X137639184Y-89635582D01*
X137663602Y-89620306D01*
X137700976Y-89614581D01*
X137885441Y-89614581D01*
X137922849Y-89620308D01*
G37*
G36*
X137417999Y-89092744D02*
G01*
X137442434Y-89108023D01*
X137457552Y-89133030D01*
X137463267Y-89171708D01*
X137463267Y-89545522D01*
X137457552Y-89584200D01*
X137442434Y-89609207D01*
X137417999Y-89624486D01*
X137380591Y-89630213D01*
X137196188Y-89630213D01*
X137158780Y-89624486D01*
X137134344Y-89609207D01*
X137119226Y-89584200D01*
X137113511Y-89545522D01*
X137113511Y-89528608D01*
X137226901Y-89528608D01*
X137348534Y-89528608D01*
X137348534Y-89188622D01*
X137226901Y-89188622D01*
X137226901Y-89528608D01*
X137113511Y-89528608D01*
X137113511Y-89171708D01*
X137119226Y-89133030D01*
X137134344Y-89108023D01*
X137158780Y-89092744D01*
X137196188Y-89087017D01*
X137380591Y-89087017D01*
X137417999Y-89092744D01*
G37*
G36*
X136344696Y-91445033D02*
G01*
X136098133Y-92413334D01*
X135934185Y-92413334D01*
X136173970Y-91479349D01*
X135969661Y-91479349D01*
X135969661Y-91635664D01*
X135815300Y-91635664D01*
X135815300Y-91342573D01*
X136344696Y-91342573D01*
X136344696Y-91445033D01*
G37*
G36*
X136915192Y-91348707D02*
G01*
X136943581Y-91364652D01*
X136960455Y-91389733D01*
X136966660Y-91427264D01*
X136966660Y-92328642D01*
X136960455Y-92366174D01*
X136943581Y-92391255D01*
X136915192Y-92407199D01*
X136870307Y-92413334D01*
X136536976Y-92413334D01*
X136492866Y-92407238D01*
X136464882Y-92391359D01*
X136448184Y-92366285D01*
X136442027Y-92328642D01*
X136442027Y-92276558D01*
X136599136Y-92276558D01*
X136810223Y-92276558D01*
X136810223Y-91479349D01*
X136599136Y-91479349D01*
X136599136Y-92276558D01*
X136442027Y-92276558D01*
X136442027Y-91427264D01*
X136448253Y-91389780D01*
X136465203Y-91364696D01*
X136493768Y-91348725D01*
X136538991Y-91342573D01*
X136870307Y-91342573D01*
X136915192Y-91348707D01*
G37*
G36*
X137820778Y-91362418D02*
G01*
X137246929Y-92413334D01*
X137154727Y-92413334D01*
X137154727Y-92394160D01*
X137729248Y-91342573D01*
X137820778Y-91342573D01*
X137820778Y-91362418D01*
G37*
G36*
X137869115Y-91875864D02*
G01*
X137893551Y-91891143D01*
X137908669Y-91916150D01*
X137914384Y-91954829D01*
X137914384Y-92328642D01*
X137908669Y-92367320D01*
X137893551Y-92392328D01*
X137869115Y-92407607D01*
X137831707Y-92413334D01*
X137647243Y-92413334D01*
X137609868Y-92407608D01*
X137585450Y-92392333D01*
X137570340Y-92367326D01*
X137564628Y-92328642D01*
X137564628Y-92311728D01*
X137678018Y-92311728D01*
X137799590Y-92311728D01*
X137799590Y-91971742D01*
X137678018Y-91971742D01*
X137678018Y-92311728D01*
X137564628Y-92311728D01*
X137564628Y-91954829D01*
X137570340Y-91916145D01*
X137585450Y-91891138D01*
X137609868Y-91875862D01*
X137647243Y-91870137D01*
X137831707Y-91870137D01*
X137869115Y-91875864D01*
G37*
G36*
X137364265Y-91348300D02*
G01*
X137388701Y-91363579D01*
X137403819Y-91388586D01*
X137409534Y-91427264D01*
X137409534Y-91801078D01*
X137403819Y-91839756D01*
X137388701Y-91864763D01*
X137364265Y-91880042D01*
X137326857Y-91885769D01*
X137142454Y-91885769D01*
X137105046Y-91880042D01*
X137080611Y-91864763D01*
X137065493Y-91839756D01*
X137059778Y-91801078D01*
X137059778Y-91784164D01*
X137173168Y-91784164D01*
X137294801Y-91784164D01*
X137294801Y-91444178D01*
X137173168Y-91444178D01*
X137173168Y-91784164D01*
X137059778Y-91784164D01*
X137059778Y-91427264D01*
X137065493Y-91388586D01*
X137080611Y-91363579D01*
X137105046Y-91348300D01*
X137142454Y-91342573D01*
X137326857Y-91342573D01*
X137364265Y-91348300D01*
G37*
G36*
X136302841Y-93604261D02*
G01*
X136331213Y-93620202D01*
X136348079Y-93645283D01*
X136354282Y-93682819D01*
X136354282Y-93922482D01*
X136197173Y-93922482D01*
X136197173Y-93734904D01*
X135996345Y-93734904D01*
X135996345Y-94055350D01*
X136260676Y-94055350D01*
X136305562Y-94061485D01*
X136333951Y-94077429D01*
X136350825Y-94102510D01*
X136357030Y-94140042D01*
X136357030Y-94584197D01*
X136350825Y-94621729D01*
X136333951Y-94646810D01*
X136305562Y-94662754D01*
X136260676Y-94668889D01*
X135936200Y-94668889D01*
X135890977Y-94662737D01*
X135862412Y-94646765D01*
X135845462Y-94621681D01*
X135839235Y-94584197D01*
X135839235Y-94532113D01*
X135996345Y-94532113D01*
X136200593Y-94532113D01*
X136200593Y-94192126D01*
X135996345Y-94192126D01*
X135996345Y-94532113D01*
X135839235Y-94532113D01*
X135839235Y-93682819D01*
X135845393Y-93645177D01*
X135862090Y-93620103D01*
X135890074Y-93604223D01*
X135934185Y-93598128D01*
X136257990Y-93598128D01*
X136302841Y-93604261D01*
G37*
G36*
X136957202Y-93604262D02*
G01*
X136985591Y-93620207D01*
X137002465Y-93645288D01*
X137008670Y-93682819D01*
X137008670Y-94584197D01*
X137002465Y-94621729D01*
X136985591Y-94646810D01*
X136957202Y-94662754D01*
X136912316Y-94668889D01*
X136578986Y-94668889D01*
X136534875Y-94662793D01*
X136506892Y-94646914D01*
X136490194Y-94621840D01*
X136484036Y-94584197D01*
X136484036Y-94532113D01*
X136641146Y-94532113D01*
X136852233Y-94532113D01*
X136852233Y-93734904D01*
X136641146Y-93734904D01*
X136641146Y-94532113D01*
X136484036Y-94532113D01*
X136484036Y-93682819D01*
X136490263Y-93645335D01*
X136507213Y-93620251D01*
X136535778Y-93604280D01*
X136581001Y-93598128D01*
X136912316Y-93598128D01*
X136957202Y-93604262D01*
G37*
G36*
X137862787Y-93617973D02*
G01*
X137288939Y-94668889D01*
X137196737Y-94668889D01*
X137196737Y-94649715D01*
X137771257Y-93598128D01*
X137862787Y-93598128D01*
X137862787Y-93617973D01*
G37*
G36*
X137911125Y-94131419D02*
G01*
X137935561Y-94146698D01*
X137950679Y-94171705D01*
X137956393Y-94210384D01*
X137956393Y-94584197D01*
X137950679Y-94622875D01*
X137935561Y-94647883D01*
X137911125Y-94663162D01*
X137873717Y-94668889D01*
X137689253Y-94668889D01*
X137651878Y-94663163D01*
X137627460Y-94647888D01*
X137612350Y-94622881D01*
X137606638Y-94584197D01*
X137606638Y-94567283D01*
X137720027Y-94567283D01*
X137841599Y-94567283D01*
X137841599Y-94227297D01*
X137720027Y-94227297D01*
X137720027Y-94567283D01*
X137606638Y-94567283D01*
X137606638Y-94210384D01*
X137612350Y-94171700D01*
X137627460Y-94146693D01*
X137651878Y-94131417D01*
X137689253Y-94125692D01*
X137873717Y-94125692D01*
X137911125Y-94131419D01*
G37*
G36*
X137406275Y-93603855D02*
G01*
X137430711Y-93619134D01*
X137445829Y-93644141D01*
X137451543Y-93682819D01*
X137451543Y-94056633D01*
X137445829Y-94095311D01*
X137430711Y-94120318D01*
X137406275Y-94135597D01*
X137368867Y-94141324D01*
X137184464Y-94141324D01*
X137147056Y-94135597D01*
X137122620Y-94120318D01*
X137107502Y-94095311D01*
X137101788Y-94056633D01*
X137101788Y-94039719D01*
X137215177Y-94039719D01*
X137336810Y-94039719D01*
X137336810Y-93699733D01*
X137215177Y-93699733D01*
X137215177Y-94039719D01*
X137101788Y-94039719D01*
X137101788Y-93682819D01*
X137107502Y-93644141D01*
X137122620Y-93619134D01*
X137147056Y-93603855D01*
X137184464Y-93598128D01*
X137368867Y-93598128D01*
X137406275Y-93603855D01*
G37*
G36*
X136350191Y-96839753D02*
G01*
X136343963Y-96877232D01*
X136327005Y-96902317D01*
X136298423Y-96918291D01*
X136253166Y-96924445D01*
X135932780Y-96924445D01*
X135888670Y-96918349D01*
X135860686Y-96902470D01*
X135843988Y-96877396D01*
X135837831Y-96839753D01*
X135837831Y-96576643D01*
X135994940Y-96576643D01*
X135994940Y-96787669D01*
X136193082Y-96787669D01*
X136193082Y-96373433D01*
X135837831Y-96373433D01*
X135854928Y-95853684D01*
X136342681Y-95853684D01*
X136342681Y-95994368D01*
X136003183Y-95994368D01*
X135992925Y-96236657D01*
X136253166Y-96236657D01*
X136298423Y-96242810D01*
X136327005Y-96258785D01*
X136343963Y-96283869D01*
X136350191Y-96321348D01*
X136350191Y-96839753D01*
G37*
G36*
X136947432Y-95859818D02*
G01*
X136975821Y-95875763D01*
X136992695Y-95900844D01*
X136998900Y-95938375D01*
X136998900Y-96839753D01*
X136992695Y-96877285D01*
X136975821Y-96902366D01*
X136947432Y-96918310D01*
X136902547Y-96924445D01*
X136569216Y-96924445D01*
X136525106Y-96918349D01*
X136497122Y-96902470D01*
X136480424Y-96877396D01*
X136474267Y-96839753D01*
X136474267Y-96787669D01*
X136631376Y-96787669D01*
X136842463Y-96787669D01*
X136842463Y-95990460D01*
X136631376Y-95990460D01*
X136631376Y-96787669D01*
X136474267Y-96787669D01*
X136474267Y-95938375D01*
X136480493Y-95900891D01*
X136497443Y-95875807D01*
X136526008Y-95859836D01*
X136571231Y-95853684D01*
X136902547Y-95853684D01*
X136947432Y-95859818D01*
G37*
G36*
X137853018Y-95873529D02*
G01*
X137279169Y-96924445D01*
X137186967Y-96924445D01*
X137186967Y-96905271D01*
X137761488Y-95853684D01*
X137853018Y-95853684D01*
X137853018Y-95873529D01*
G37*
G36*
X137901355Y-96386975D02*
G01*
X137925791Y-96402254D01*
X137940909Y-96427261D01*
X137946624Y-96465940D01*
X137946624Y-96839753D01*
X137940909Y-96878431D01*
X137925791Y-96903439D01*
X137901355Y-96918718D01*
X137863948Y-96924445D01*
X137679483Y-96924445D01*
X137642108Y-96918719D01*
X137617690Y-96903444D01*
X137602580Y-96878437D01*
X137596868Y-96839753D01*
X137596868Y-96822839D01*
X137710258Y-96822839D01*
X137831830Y-96822839D01*
X137831830Y-96482853D01*
X137710258Y-96482853D01*
X137710258Y-96822839D01*
X137596868Y-96822839D01*
X137596868Y-96465940D01*
X137602580Y-96427256D01*
X137617690Y-96402249D01*
X137642108Y-96386973D01*
X137679483Y-96381248D01*
X137863948Y-96381248D01*
X137901355Y-96386975D01*
G37*
G36*
X137396505Y-95859411D02*
G01*
X137420941Y-95874690D01*
X137436059Y-95899697D01*
X137441774Y-95938375D01*
X137441774Y-96312189D01*
X137436059Y-96350867D01*
X137420941Y-96375874D01*
X137396505Y-96391153D01*
X137359098Y-96396880D01*
X137174694Y-96396880D01*
X137137286Y-96391153D01*
X137112851Y-96375874D01*
X137097733Y-96350867D01*
X137092018Y-96312189D01*
X137092018Y-96295275D01*
X137205408Y-96295275D01*
X137327041Y-96295275D01*
X137327041Y-95955289D01*
X137205408Y-95955289D01*
X137205408Y-96295275D01*
X137092018Y-96295275D01*
X137092018Y-95938375D01*
X137097733Y-95899697D01*
X137112851Y-95874690D01*
X137137286Y-95859411D01*
X137174694Y-95853684D01*
X137359098Y-95853684D01*
X137396505Y-95859411D01*
G37*
G36*
X136383653Y-98976789D02*
G01*
X136302381Y-98976789D01*
X136302381Y-99180000D01*
X136150034Y-99180000D01*
X136150034Y-98976789D01*
X135798935Y-98976789D01*
X135798935Y-98881840D01*
X136064672Y-98109239D01*
X136227215Y-98109239D01*
X136227215Y-98115406D01*
X135977904Y-98840013D01*
X136150034Y-98840013D01*
X136150034Y-98519567D01*
X136302381Y-98519567D01*
X136302381Y-98840013D01*
X136383653Y-98840013D01*
X136383653Y-98976789D01*
G37*
G36*
X136949386Y-98115373D02*
G01*
X136977775Y-98131318D01*
X136994649Y-98156399D01*
X137000854Y-98193930D01*
X137000854Y-99095308D01*
X136994649Y-99132840D01*
X136977775Y-99157921D01*
X136949386Y-99173865D01*
X136904501Y-99180000D01*
X136571170Y-99180000D01*
X136527060Y-99173904D01*
X136499076Y-99158025D01*
X136482378Y-99132951D01*
X136476221Y-99095308D01*
X136476221Y-99043224D01*
X136633330Y-99043224D01*
X136844417Y-99043224D01*
X136844417Y-98246015D01*
X136633330Y-98246015D01*
X136633330Y-99043224D01*
X136476221Y-99043224D01*
X136476221Y-98193930D01*
X136482447Y-98156446D01*
X136499397Y-98131362D01*
X136527962Y-98115391D01*
X136573185Y-98109239D01*
X136904501Y-98109239D01*
X136949386Y-98115373D01*
G37*
G36*
X137854972Y-98129084D02*
G01*
X137281123Y-99180000D01*
X137188921Y-99180000D01*
X137188921Y-99160826D01*
X137763442Y-98109239D01*
X137854972Y-98109239D01*
X137854972Y-98129084D01*
G37*
G36*
X137903309Y-98642530D02*
G01*
X137927745Y-98657809D01*
X137942863Y-98682816D01*
X137948578Y-98721495D01*
X137948578Y-99095308D01*
X137942863Y-99133986D01*
X137927745Y-99158994D01*
X137903309Y-99174273D01*
X137865901Y-99180000D01*
X137681437Y-99180000D01*
X137644062Y-99174274D01*
X137619644Y-99158999D01*
X137604534Y-99133992D01*
X137598822Y-99095308D01*
X137598822Y-99078394D01*
X137712212Y-99078394D01*
X137833784Y-99078394D01*
X137833784Y-98738408D01*
X137712212Y-98738408D01*
X137712212Y-99078394D01*
X137598822Y-99078394D01*
X137598822Y-98721495D01*
X137604534Y-98682811D01*
X137619644Y-98657804D01*
X137644062Y-98642528D01*
X137681437Y-98636803D01*
X137865901Y-98636803D01*
X137903309Y-98642530D01*
G37*
G36*
X137398459Y-98114966D02*
G01*
X137422895Y-98130245D01*
X137438013Y-98155252D01*
X137443728Y-98193930D01*
X137443728Y-98567744D01*
X137438013Y-98606422D01*
X137422895Y-98631429D01*
X137398459Y-98646708D01*
X137361051Y-98652435D01*
X137176648Y-98652435D01*
X137139240Y-98646708D01*
X137114805Y-98631429D01*
X137099687Y-98606422D01*
X137093972Y-98567744D01*
X137093972Y-98550830D01*
X137207362Y-98550830D01*
X137328995Y-98550830D01*
X137328995Y-98210844D01*
X137207362Y-98210844D01*
X137207362Y-98550830D01*
X137093972Y-98550830D01*
X137093972Y-98193930D01*
X137099687Y-98155252D01*
X137114805Y-98130245D01*
X137139240Y-98114966D01*
X137176648Y-98109239D01*
X137361051Y-98109239D01*
X137398459Y-98114966D01*
G37*
G36*
X136358374Y-101350864D02*
G01*
X136352170Y-101388401D01*
X136335304Y-101413481D01*
X136306932Y-101429423D01*
X136262081Y-101435556D01*
X135934185Y-101435556D01*
X135890074Y-101429460D01*
X135862090Y-101413581D01*
X135845393Y-101388507D01*
X135839235Y-101350864D01*
X135839235Y-101091662D01*
X135996345Y-101091662D01*
X135996345Y-101298780D01*
X136201936Y-101298780D01*
X136201936Y-101029868D01*
X136005870Y-100895107D01*
X136005870Y-100861585D01*
X136201936Y-100728289D01*
X136201936Y-100501571D01*
X135996345Y-100501571D01*
X135996345Y-100696965D01*
X135839235Y-100696965D01*
X135839235Y-100449486D01*
X135845462Y-100412002D01*
X135862412Y-100386918D01*
X135890977Y-100370947D01*
X135936200Y-100364795D01*
X136262081Y-100364795D01*
X136306932Y-100370928D01*
X136335304Y-100386869D01*
X136352170Y-100411950D01*
X136358374Y-100449486D01*
X136358374Y-100713207D01*
X136352319Y-100753478D01*
X136334861Y-100786225D01*
X136305068Y-100813347D01*
X136206027Y-100878682D01*
X136306472Y-100942673D01*
X136335268Y-100968074D01*
X136352358Y-101000056D01*
X136358374Y-101040798D01*
X136358374Y-101350864D01*
G37*
G36*
X136956225Y-100370929D02*
G01*
X136984614Y-100386874D01*
X137001488Y-100411955D01*
X137007693Y-100449486D01*
X137007693Y-101350864D01*
X137001488Y-101388396D01*
X136984614Y-101413477D01*
X136956225Y-101429421D01*
X136911339Y-101435556D01*
X136578009Y-101435556D01*
X136533899Y-101429460D01*
X136505915Y-101413581D01*
X136489217Y-101388507D01*
X136483060Y-101350864D01*
X136483060Y-101298780D01*
X136640169Y-101298780D01*
X136851256Y-101298780D01*
X136851256Y-100501571D01*
X136640169Y-100501571D01*
X136640169Y-101298780D01*
X136483060Y-101298780D01*
X136483060Y-100449486D01*
X136489286Y-100412002D01*
X136506236Y-100386918D01*
X136534801Y-100370947D01*
X136580024Y-100364795D01*
X136911339Y-100364795D01*
X136956225Y-100370929D01*
G37*
G36*
X137861810Y-100384640D02*
G01*
X137287962Y-101435556D01*
X137195760Y-101435556D01*
X137195760Y-101416382D01*
X137770280Y-100364795D01*
X137861810Y-100364795D01*
X137861810Y-100384640D01*
G37*
G36*
X137910148Y-100898086D02*
G01*
X137934584Y-100913365D01*
X137949702Y-100938372D01*
X137955416Y-100977051D01*
X137955416Y-101350864D01*
X137949702Y-101389542D01*
X137934584Y-101414550D01*
X137910148Y-101429829D01*
X137872740Y-101435556D01*
X137688276Y-101435556D01*
X137650901Y-101429830D01*
X137626483Y-101414555D01*
X137611373Y-101389548D01*
X137605661Y-101350864D01*
X137605661Y-101333950D01*
X137719050Y-101333950D01*
X137840622Y-101333950D01*
X137840622Y-100993964D01*
X137719050Y-100993964D01*
X137719050Y-101333950D01*
X137605661Y-101333950D01*
X137605661Y-100977051D01*
X137611373Y-100938367D01*
X137626483Y-100913360D01*
X137650901Y-100898084D01*
X137688276Y-100892359D01*
X137872740Y-100892359D01*
X137910148Y-100898086D01*
G37*
G36*
X137405298Y-100370522D02*
G01*
X137429734Y-100385801D01*
X137444852Y-100410808D01*
X137450566Y-100449486D01*
X137450566Y-100823300D01*
X137444852Y-100861978D01*
X137429734Y-100886985D01*
X137405298Y-100902264D01*
X137367890Y-100907991D01*
X137183487Y-100907991D01*
X137146079Y-100902264D01*
X137121643Y-100886985D01*
X137106525Y-100861978D01*
X137100811Y-100823300D01*
X137100811Y-100806386D01*
X137214200Y-100806386D01*
X137335833Y-100806386D01*
X137335833Y-100466400D01*
X137214200Y-100466400D01*
X137214200Y-100806386D01*
X137100811Y-100806386D01*
X137100811Y-100449486D01*
X137106525Y-100410808D01*
X137121643Y-100385801D01*
X137146079Y-100370522D01*
X137183487Y-100364795D01*
X137367890Y-100364795D01*
X137405298Y-100370522D01*
G37*
G36*
X136341277Y-102925348D02*
G01*
X136337819Y-102958273D01*
X136326706Y-102995284D01*
X136306411Y-103037395D01*
X136012709Y-103550427D01*
X136339933Y-103550427D01*
X136339933Y-103691111D01*
X135821467Y-103691111D01*
X135821467Y-103591459D01*
X136183496Y-102954779D01*
X136183496Y-102757126D01*
X135988834Y-102757126D01*
X135988834Y-102956428D01*
X135832397Y-102956428D01*
X135832397Y-102705041D01*
X135838648Y-102667614D01*
X135855689Y-102642527D01*
X135884466Y-102626522D01*
X135930094Y-102620350D01*
X136243640Y-102620350D01*
X136289235Y-102626520D01*
X136317993Y-102642522D01*
X136335027Y-102667610D01*
X136341277Y-102705041D01*
X136341277Y-102925348D01*
G37*
G36*
X136928870Y-102626484D02*
G01*
X136957259Y-102642429D01*
X136974132Y-102667510D01*
X136980338Y-102705041D01*
X136980338Y-103606419D01*
X136974132Y-103643951D01*
X136957259Y-103669032D01*
X136928870Y-103684976D01*
X136883984Y-103691111D01*
X136550654Y-103691111D01*
X136506543Y-103685015D01*
X136478559Y-103669136D01*
X136461862Y-103644062D01*
X136455704Y-103606419D01*
X136455704Y-103554335D01*
X136612814Y-103554335D01*
X136823900Y-103554335D01*
X136823900Y-102757126D01*
X136612814Y-102757126D01*
X136612814Y-103554335D01*
X136455704Y-103554335D01*
X136455704Y-102705041D01*
X136461931Y-102667557D01*
X136478881Y-102642473D01*
X136507446Y-102626502D01*
X136552669Y-102620350D01*
X136883984Y-102620350D01*
X136928870Y-102626484D01*
G37*
G36*
X137834455Y-102640195D02*
G01*
X137260607Y-103691111D01*
X137168405Y-103691111D01*
X137168405Y-103671937D01*
X137742925Y-102620350D01*
X137834455Y-102620350D01*
X137834455Y-102640195D01*
G37*
G36*
X137882793Y-103153641D02*
G01*
X137907229Y-103168920D01*
X137922347Y-103193927D01*
X137928061Y-103232606D01*
X137928061Y-103606419D01*
X137922347Y-103645097D01*
X137907229Y-103670105D01*
X137882793Y-103685384D01*
X137845385Y-103691111D01*
X137660921Y-103691111D01*
X137623546Y-103685385D01*
X137599128Y-103670110D01*
X137584018Y-103645103D01*
X137578306Y-103606419D01*
X137578306Y-103589505D01*
X137691695Y-103589505D01*
X137813267Y-103589505D01*
X137813267Y-103249519D01*
X137691695Y-103249519D01*
X137691695Y-103589505D01*
X137578306Y-103589505D01*
X137578306Y-103232606D01*
X137584018Y-103193922D01*
X137599128Y-103168915D01*
X137623546Y-103153639D01*
X137660921Y-103147914D01*
X137845385Y-103147914D01*
X137882793Y-103153641D01*
G37*
G36*
X137377943Y-102626077D02*
G01*
X137402379Y-102641356D01*
X137417497Y-102666363D01*
X137423211Y-102705041D01*
X137423211Y-103078855D01*
X137417497Y-103117533D01*
X137402379Y-103142540D01*
X137377943Y-103157819D01*
X137340535Y-103163546D01*
X137156132Y-103163546D01*
X137118724Y-103157819D01*
X137094288Y-103142540D01*
X137079170Y-103117533D01*
X137073456Y-103078855D01*
X137073456Y-103061941D01*
X137186845Y-103061941D01*
X137308478Y-103061941D01*
X137308478Y-102721955D01*
X137186845Y-102721955D01*
X137186845Y-103061941D01*
X137073456Y-103061941D01*
X137073456Y-102705041D01*
X137079170Y-102666363D01*
X137094288Y-102641356D01*
X137118724Y-102626077D01*
X137156132Y-102620350D01*
X137340535Y-102620350D01*
X137377943Y-102626077D01*
G37*
G36*
X136032554Y-105946667D02*
G01*
X135875444Y-105946667D01*
X135875444Y-105188537D01*
X135813956Y-105188537D01*
X135813956Y-105167043D01*
X135896571Y-104875906D01*
X136032554Y-104875906D01*
X136032554Y-105946667D01*
G37*
G36*
X136640663Y-104882040D02*
G01*
X136669052Y-104897985D01*
X136685926Y-104923066D01*
X136692131Y-104960597D01*
X136692131Y-105861975D01*
X136685926Y-105899507D01*
X136669052Y-105924588D01*
X136640663Y-105940532D01*
X136595778Y-105946667D01*
X136262447Y-105946667D01*
X136218337Y-105940571D01*
X136190353Y-105924692D01*
X136173655Y-105899618D01*
X136167498Y-105861975D01*
X136167498Y-105809891D01*
X136324607Y-105809891D01*
X136535694Y-105809891D01*
X136535694Y-105012682D01*
X136324607Y-105012682D01*
X136324607Y-105809891D01*
X136167498Y-105809891D01*
X136167498Y-104960597D01*
X136173724Y-104923113D01*
X136190674Y-104898029D01*
X136219239Y-104882058D01*
X136264462Y-104875906D01*
X136595778Y-104875906D01*
X136640663Y-104882040D01*
G37*
G36*
X137546249Y-104895751D02*
G01*
X136972400Y-105946667D01*
X136880198Y-105946667D01*
X136880198Y-105927493D01*
X137454719Y-104875906D01*
X137546249Y-104875906D01*
X137546249Y-104895751D01*
G37*
G36*
X137594586Y-105409197D02*
G01*
X137619022Y-105424476D01*
X137634140Y-105449483D01*
X137639855Y-105488162D01*
X137639855Y-105861975D01*
X137634140Y-105900653D01*
X137619022Y-105925661D01*
X137594586Y-105940940D01*
X137557178Y-105946667D01*
X137372714Y-105946667D01*
X137335339Y-105940941D01*
X137310921Y-105925666D01*
X137295811Y-105900659D01*
X137290099Y-105861975D01*
X137290099Y-105845061D01*
X137403489Y-105845061D01*
X137525061Y-105845061D01*
X137525061Y-105505075D01*
X137403489Y-105505075D01*
X137403489Y-105845061D01*
X137290099Y-105845061D01*
X137290099Y-105488162D01*
X137295811Y-105449478D01*
X137310921Y-105424471D01*
X137335339Y-105409195D01*
X137372714Y-105403470D01*
X137557178Y-105403470D01*
X137594586Y-105409197D01*
G37*
G36*
X137089736Y-104881633D02*
G01*
X137114172Y-104896912D01*
X137129290Y-104921919D01*
X137135005Y-104960597D01*
X137135005Y-105334411D01*
X137129290Y-105373089D01*
X137114172Y-105398096D01*
X137089736Y-105413375D01*
X137052329Y-105419102D01*
X136867925Y-105419102D01*
X136830517Y-105413375D01*
X136806082Y-105398096D01*
X136790964Y-105373089D01*
X136785249Y-105334411D01*
X136785249Y-105317497D01*
X136898639Y-105317497D01*
X137020272Y-105317497D01*
X137020272Y-104977511D01*
X136898639Y-104977511D01*
X136898639Y-105317497D01*
X136785249Y-105317497D01*
X136785249Y-104960597D01*
X136790964Y-104921919D01*
X136806082Y-104896912D01*
X136830517Y-104881633D01*
X136867925Y-104875906D01*
X137052329Y-104875906D01*
X137089736Y-104881633D01*
G37*
D12*
G36*
X155244116Y-106443842D02*
G01*
X154931607Y-106443842D01*
X154931607Y-106748657D01*
X154713346Y-106748657D01*
X154713346Y-106443842D01*
X154400837Y-106443842D01*
X154400837Y-106244540D01*
X154713346Y-106244540D01*
X154713346Y-105939725D01*
X154931607Y-105939725D01*
X154931607Y-106244540D01*
X155244116Y-106244540D01*
X155244116Y-106443842D01*
G37*
D13*
G36*
X142225512Y-97984104D02*
G01*
X142274971Y-98002439D01*
X142315335Y-98031978D01*
X142345804Y-98071485D01*
X142364667Y-98120196D01*
X142371389Y-98180783D01*
X142371389Y-98845123D01*
X142364643Y-98906155D01*
X142345762Y-98954959D01*
X142315335Y-98994295D01*
X142274999Y-99023620D01*
X142225540Y-99041840D01*
X142164393Y-99048334D01*
X141838573Y-99048334D01*
X141838573Y-98911558D01*
X141998430Y-98911558D01*
X142113163Y-98911558D01*
X142158167Y-98905127D01*
X142186988Y-98888246D01*
X142204390Y-98861278D01*
X142210861Y-98820394D01*
X142210861Y-98204169D01*
X142204581Y-98163665D01*
X142187775Y-98137109D01*
X142160145Y-98120606D01*
X142117254Y-98114349D01*
X141998430Y-98114349D01*
X141998430Y-98911558D01*
X141838573Y-98911558D01*
X141838573Y-97977573D01*
X142164393Y-97977573D01*
X142225512Y-97984104D01*
G37*
G36*
X142958704Y-97983706D02*
G01*
X142987076Y-97999647D01*
X143003942Y-98024728D01*
X143010145Y-98062264D01*
X143010145Y-98301927D01*
X142853036Y-98301927D01*
X142853036Y-98114349D01*
X142652207Y-98114349D01*
X142652207Y-98434795D01*
X142916539Y-98434795D01*
X142961425Y-98440930D01*
X142989814Y-98456874D01*
X143006687Y-98481955D01*
X143012893Y-98519487D01*
X143012893Y-98963642D01*
X143006687Y-99001174D01*
X142989814Y-99026255D01*
X142961425Y-99042199D01*
X142916539Y-99048334D01*
X142592063Y-99048334D01*
X142546840Y-99042182D01*
X142518275Y-99026210D01*
X142501325Y-99001126D01*
X142495098Y-98963642D01*
X142495098Y-98911558D01*
X142652207Y-98911558D01*
X142856455Y-98911558D01*
X142856455Y-98571571D01*
X142652207Y-98571571D01*
X142652207Y-98911558D01*
X142495098Y-98911558D01*
X142495098Y-98062264D01*
X142501256Y-98024622D01*
X142517953Y-97999548D01*
X142545937Y-97983668D01*
X142590048Y-97977573D01*
X142913853Y-97977573D01*
X142958704Y-97983706D01*
G37*
G36*
X139590000Y-107275130D02*
G01*
X139590000Y-107441825D01*
X139092477Y-107618047D01*
X138996001Y-107618047D01*
X138996001Y-107460937D01*
X138656015Y-107460937D01*
X138656015Y-107662438D01*
X139590000Y-107662438D01*
X139590000Y-107822295D01*
X138519239Y-107822295D01*
X138519239Y-107398106D01*
X138525373Y-107353220D01*
X138541318Y-107324831D01*
X138566399Y-107307958D01*
X138603930Y-107301752D01*
X139016823Y-107301752D01*
X139052767Y-107307356D01*
X139076987Y-107322510D01*
X139092660Y-107347548D01*
X139098647Y-107378906D01*
X139101514Y-107451412D01*
X139590000Y-107275130D01*
G37*
G36*
X139590000Y-106984175D02*
G01*
X139590000Y-107141285D01*
X138831870Y-107141285D01*
X138831870Y-107202773D01*
X138810376Y-107202773D01*
X138519239Y-107120158D01*
X138519239Y-106984175D01*
X139590000Y-106984175D01*
G37*
G36*
X140105308Y-81107519D02*
G01*
X140142735Y-81113770D01*
X140167823Y-81130811D01*
X140183827Y-81159588D01*
X140190000Y-81205216D01*
X140190000Y-81538546D01*
X140183904Y-81582657D01*
X140168025Y-81610641D01*
X140142951Y-81627338D01*
X140105308Y-81633496D01*
X139203930Y-81633496D01*
X139166288Y-81627338D01*
X139141214Y-81610641D01*
X139125334Y-81582657D01*
X139119239Y-81538546D01*
X139119239Y-81205216D01*
X139125411Y-81159588D01*
X139141416Y-81130811D01*
X139166503Y-81113770D01*
X139203930Y-81107519D01*
X139470949Y-81107519D01*
X139470949Y-81266704D01*
X139256015Y-81266704D01*
X139256015Y-81473639D01*
X140053224Y-81473639D01*
X140053224Y-81266704D01*
X139830474Y-81266704D01*
X139830474Y-81107519D01*
X140105308Y-81107519D01*
G37*
G36*
X140105308Y-80462718D02*
G01*
X140142845Y-80468921D01*
X140167925Y-80485787D01*
X140183867Y-80514159D01*
X140190000Y-80559010D01*
X140190000Y-80886906D01*
X140183904Y-80931017D01*
X140168025Y-80959001D01*
X140142951Y-80975698D01*
X140105308Y-80981856D01*
X139846106Y-80981856D01*
X139846106Y-80824747D01*
X140053224Y-80824747D01*
X140053224Y-80619155D01*
X139784312Y-80619155D01*
X139649551Y-80815221D01*
X139616029Y-80815221D01*
X139482733Y-80619155D01*
X139256015Y-80619155D01*
X139256015Y-80824747D01*
X139451409Y-80824747D01*
X139451409Y-80981856D01*
X139203930Y-80981856D01*
X139166446Y-80975629D01*
X139141362Y-80958679D01*
X139125391Y-80930114D01*
X139119239Y-80884891D01*
X139119239Y-80559010D01*
X139125372Y-80514159D01*
X139141313Y-80485787D01*
X139166394Y-80468921D01*
X139203930Y-80462718D01*
X139467651Y-80462718D01*
X139507922Y-80468772D01*
X139540669Y-80486230D01*
X139567791Y-80516024D01*
X139633126Y-80615064D01*
X139697117Y-80514619D01*
X139722518Y-80485823D01*
X139754500Y-80468733D01*
X139795242Y-80462718D01*
X140105308Y-80462718D01*
G37*
G36*
X142225999Y-104717437D02*
G01*
X142275458Y-104735772D01*
X142315822Y-104765311D01*
X142346291Y-104804818D01*
X142365154Y-104853529D01*
X142371876Y-104914116D01*
X142371876Y-105578456D01*
X142365130Y-105639488D01*
X142346249Y-105688292D01*
X142315822Y-105727628D01*
X142275486Y-105756953D01*
X142226027Y-105775173D01*
X142164880Y-105781667D01*
X141839060Y-105781667D01*
X141839060Y-105644891D01*
X141998917Y-105644891D01*
X142113650Y-105644891D01*
X142158654Y-105638460D01*
X142187475Y-105621579D01*
X142204877Y-105594611D01*
X142211348Y-105553727D01*
X142211348Y-104937502D01*
X142205068Y-104896998D01*
X142188262Y-104870442D01*
X142160632Y-104853939D01*
X142117741Y-104847682D01*
X141998917Y-104847682D01*
X141998917Y-105644891D01*
X141839060Y-105644891D01*
X141839060Y-104710906D01*
X142164880Y-104710906D01*
X142225999Y-104717437D01*
G37*
G36*
X143014723Y-105696975D02*
G01*
X143008520Y-105734512D01*
X142991654Y-105759592D01*
X142963282Y-105775534D01*
X142918431Y-105781667D01*
X142590535Y-105781667D01*
X142546424Y-105775571D01*
X142518440Y-105759692D01*
X142501743Y-105734618D01*
X142495585Y-105696975D01*
X142495585Y-105437773D01*
X142652694Y-105437773D01*
X142652694Y-105644891D01*
X142858286Y-105644891D01*
X142858286Y-105375979D01*
X142662220Y-105241218D01*
X142662220Y-105207696D01*
X142858286Y-105074400D01*
X142858286Y-104847682D01*
X142652694Y-104847682D01*
X142652694Y-105043076D01*
X142495585Y-105043076D01*
X142495585Y-104795597D01*
X142501812Y-104758113D01*
X142518762Y-104733029D01*
X142547327Y-104717058D01*
X142592550Y-104710906D01*
X142918431Y-104710906D01*
X142963282Y-104717039D01*
X142991654Y-104732980D01*
X143008520Y-104758061D01*
X143014723Y-104795597D01*
X143014723Y-105059318D01*
X143008669Y-105099589D01*
X142991210Y-105132336D01*
X142961417Y-105159458D01*
X142862377Y-105224793D01*
X142962822Y-105288784D01*
X142991617Y-105314185D01*
X143008708Y-105346167D01*
X143014723Y-105386909D01*
X143014723Y-105696975D01*
G37*
G36*
X144940000Y-91483400D02*
G01*
X144940000Y-91650095D01*
X144442477Y-91826317D01*
X144346001Y-91826317D01*
X144346001Y-91669207D01*
X144006015Y-91669207D01*
X144006015Y-91870708D01*
X144940000Y-91870708D01*
X144940000Y-92030565D01*
X143869239Y-92030565D01*
X143869239Y-91606376D01*
X143875373Y-91561490D01*
X143891318Y-91533101D01*
X143916399Y-91516228D01*
X143953930Y-91510022D01*
X144366823Y-91510022D01*
X144402767Y-91515626D01*
X144426987Y-91530780D01*
X144442660Y-91555818D01*
X144448647Y-91587176D01*
X144451514Y-91659682D01*
X144940000Y-91483400D01*
G37*
G36*
X144892840Y-90874174D02*
G01*
X144917921Y-90891048D01*
X144933865Y-90919437D01*
X144940000Y-90964322D01*
X144940000Y-91288799D01*
X144933848Y-91334022D01*
X144917876Y-91362587D01*
X144892792Y-91379537D01*
X144855308Y-91385764D01*
X143953930Y-91385764D01*
X143916288Y-91379606D01*
X143891214Y-91362908D01*
X143875334Y-91334925D01*
X143869239Y-91290814D01*
X143869239Y-90967009D01*
X143875372Y-90922157D01*
X143891313Y-90893786D01*
X143916394Y-90876920D01*
X143953930Y-90870716D01*
X144193593Y-90870716D01*
X144193593Y-91027826D01*
X144006015Y-91027826D01*
X144006015Y-91228654D01*
X144326461Y-91228654D01*
X144463237Y-91228654D01*
X144803224Y-91228654D01*
X144803224Y-91024406D01*
X144463237Y-91024406D01*
X144463237Y-91228654D01*
X144326461Y-91228654D01*
X144326461Y-90964322D01*
X144332596Y-90919437D01*
X144348540Y-90891048D01*
X144373621Y-90874174D01*
X144411153Y-90867969D01*
X144855308Y-90867969D01*
X144892840Y-90874174D01*
G37*
G36*
X149840000Y-114679492D02*
G01*
X149840000Y-114846187D01*
X149342477Y-115022409D01*
X149246001Y-115022409D01*
X149246001Y-114865299D01*
X148906015Y-114865299D01*
X148906015Y-115066800D01*
X149840000Y-115066800D01*
X149840000Y-115226657D01*
X148769239Y-115226657D01*
X148769239Y-114802468D01*
X148775373Y-114757582D01*
X148791318Y-114729193D01*
X148816399Y-114712320D01*
X148853930Y-114706114D01*
X149266823Y-114706114D01*
X149302767Y-114711718D01*
X149326987Y-114726872D01*
X149342660Y-114751910D01*
X149348647Y-114783268D01*
X149351514Y-114855774D01*
X149840000Y-114679492D01*
G37*
G36*
X149636789Y-114037438D02*
G01*
X149636789Y-114118710D01*
X149840000Y-114118710D01*
X149840000Y-114271056D01*
X149636789Y-114271056D01*
X149636789Y-114622156D01*
X149541840Y-114622156D01*
X148769239Y-114356419D01*
X148769239Y-114193876D01*
X148775406Y-114193876D01*
X149500013Y-114443187D01*
X149500013Y-114271056D01*
X149179567Y-114271056D01*
X149179567Y-114118710D01*
X149500013Y-114118710D01*
X149500013Y-114037438D01*
X149636789Y-114037438D01*
G37*
G36*
X149305308Y-106596745D02*
G01*
X149342683Y-106603019D01*
X149367774Y-106620144D01*
X149383809Y-106649114D01*
X149390000Y-106695114D01*
X149390000Y-107034611D01*
X149383848Y-107079834D01*
X149367876Y-107108399D01*
X149342792Y-107125349D01*
X149305308Y-107131576D01*
X148319239Y-107131576D01*
X148319239Y-106971719D01*
X149253224Y-106971719D01*
X149253224Y-106756541D01*
X148319239Y-106756541D01*
X148319239Y-106596745D01*
X149305308Y-106596745D01*
G37*
G36*
X149390000Y-106274894D02*
G01*
X149390000Y-106432003D01*
X148631870Y-106432003D01*
X148631870Y-106493491D01*
X148610376Y-106493491D01*
X148319239Y-106410876D01*
X148319239Y-106274894D01*
X149390000Y-106274894D01*
G37*
G36*
X142057472Y-89006326D02*
G01*
X142106931Y-89024661D01*
X142147295Y-89054200D01*
X142177764Y-89093707D01*
X142196627Y-89142418D01*
X142203349Y-89203005D01*
X142203349Y-89867345D01*
X142196603Y-89928377D01*
X142177722Y-89977181D01*
X142147295Y-90016517D01*
X142106959Y-90045842D01*
X142057500Y-90064062D01*
X141996353Y-90070556D01*
X141670533Y-90070556D01*
X141670533Y-89933780D01*
X141830390Y-89933780D01*
X141945123Y-89933780D01*
X141990127Y-89927349D01*
X142018948Y-89910468D01*
X142036350Y-89883500D01*
X142042821Y-89842616D01*
X142042821Y-89226391D01*
X142036541Y-89185887D01*
X142019735Y-89159331D01*
X141992105Y-89142828D01*
X141949214Y-89136571D01*
X141830390Y-89136571D01*
X141830390Y-89933780D01*
X141670533Y-89933780D01*
X141670533Y-88999795D01*
X141996353Y-88999795D01*
X142057472Y-89006326D01*
G37*
G36*
X142520376Y-90070556D02*
G01*
X142363267Y-90070556D01*
X142363267Y-89312426D01*
X142301779Y-89312426D01*
X142301779Y-89290932D01*
X142384394Y-88999795D01*
X142520376Y-88999795D01*
X142520376Y-90070556D01*
G37*
G36*
X143128486Y-89005929D02*
G01*
X143156875Y-89021874D01*
X143173749Y-89046955D01*
X143179954Y-89084486D01*
X143179954Y-89985864D01*
X143173749Y-90023396D01*
X143156875Y-90048477D01*
X143128486Y-90064421D01*
X143083600Y-90070556D01*
X142750270Y-90070556D01*
X142706160Y-90064460D01*
X142678176Y-90048581D01*
X142661478Y-90023507D01*
X142655321Y-89985864D01*
X142655321Y-89933780D01*
X142812430Y-89933780D01*
X143023517Y-89933780D01*
X143023517Y-89136571D01*
X142812430Y-89136571D01*
X142812430Y-89933780D01*
X142655321Y-89933780D01*
X142655321Y-89084486D01*
X142661547Y-89047002D01*
X142678497Y-89021918D01*
X142707062Y-89005947D01*
X142752285Y-88999795D01*
X143083600Y-88999795D01*
X143128486Y-89005929D01*
G37*
G36*
X159690000Y-91983365D02*
G01*
X159690000Y-92150060D01*
X159192477Y-92326282D01*
X159096001Y-92326282D01*
X159096001Y-92169172D01*
X158756015Y-92169172D01*
X158756015Y-92370673D01*
X159690000Y-92370673D01*
X159690000Y-92530530D01*
X158619239Y-92530530D01*
X158619239Y-92106341D01*
X158625373Y-92061455D01*
X158641318Y-92033066D01*
X158666399Y-92016193D01*
X158703930Y-92009987D01*
X159116823Y-92009987D01*
X159152767Y-92015591D01*
X159176987Y-92030745D01*
X159192660Y-92055783D01*
X159198647Y-92087141D01*
X159201514Y-92159647D01*
X159690000Y-91983365D01*
G37*
G36*
X159690000Y-91692410D02*
G01*
X159690000Y-91849520D01*
X158931870Y-91849520D01*
X158931870Y-91911008D01*
X158910376Y-91911008D01*
X158619239Y-91828393D01*
X158619239Y-91692410D01*
X159690000Y-91692410D01*
G37*
G36*
X158924237Y-91055425D02*
G01*
X158957162Y-91058882D01*
X158994173Y-91069996D01*
X159036284Y-91090291D01*
X159549316Y-91383993D01*
X159549316Y-91056768D01*
X159690000Y-91056768D01*
X159690000Y-91575235D01*
X159590348Y-91575235D01*
X158953668Y-91213206D01*
X158756015Y-91213206D01*
X158756015Y-91407867D01*
X158955317Y-91407867D01*
X158955317Y-91564305D01*
X158703930Y-91564305D01*
X158666503Y-91558054D01*
X158641416Y-91541012D01*
X158625411Y-91512236D01*
X158619239Y-91466608D01*
X158619239Y-91153061D01*
X158625409Y-91107467D01*
X158641411Y-91078708D01*
X158666499Y-91061674D01*
X158703930Y-91055425D01*
X158924237Y-91055425D01*
G37*
G36*
X143897821Y-106996190D02*
G01*
X143946625Y-107015071D01*
X143985961Y-107045498D01*
X144015286Y-107085834D01*
X144033506Y-107135293D01*
X144040000Y-107196440D01*
X144040000Y-107522260D01*
X142969239Y-107522260D01*
X142969239Y-107243579D01*
X143106015Y-107243579D01*
X143106015Y-107362403D01*
X143903224Y-107362403D01*
X143903224Y-107247670D01*
X143896793Y-107202666D01*
X143879912Y-107173845D01*
X143852944Y-107156443D01*
X143812060Y-107149972D01*
X143195835Y-107149972D01*
X143155331Y-107156252D01*
X143128775Y-107173058D01*
X143112272Y-107200688D01*
X143106015Y-107243579D01*
X142969239Y-107243579D01*
X142969239Y-107196440D01*
X142975770Y-107135321D01*
X142994105Y-107085862D01*
X143023644Y-107045498D01*
X143063151Y-107015029D01*
X143111862Y-106996166D01*
X143172449Y-106989444D01*
X143836789Y-106989444D01*
X143897821Y-106996190D01*
G37*
G36*
X143274237Y-106363694D02*
G01*
X143307162Y-106367151D01*
X143344173Y-106378265D01*
X143386284Y-106398559D01*
X143899316Y-106692261D01*
X143899316Y-106365037D01*
X144040000Y-106365037D01*
X144040000Y-106883504D01*
X143940348Y-106883504D01*
X143303668Y-106521475D01*
X143106015Y-106521475D01*
X143106015Y-106716136D01*
X143305317Y-106716136D01*
X143305317Y-106872574D01*
X143053930Y-106872574D01*
X143016503Y-106866322D01*
X142991416Y-106849281D01*
X142975411Y-106820505D01*
X142969239Y-106774877D01*
X142969239Y-106461330D01*
X142975409Y-106415735D01*
X142991411Y-106386977D01*
X143016499Y-106369943D01*
X143053930Y-106363694D01*
X143274237Y-106363694D01*
G37*
G36*
X149140000Y-109735522D02*
G01*
X149140000Y-109902217D01*
X148642477Y-110078439D01*
X148546001Y-110078439D01*
X148546001Y-109921329D01*
X148206015Y-109921329D01*
X148206015Y-110122830D01*
X149140000Y-110122830D01*
X149140000Y-110282687D01*
X148069239Y-110282687D01*
X148069239Y-109858498D01*
X148075373Y-109813612D01*
X148091318Y-109785223D01*
X148116399Y-109768350D01*
X148153930Y-109762144D01*
X148566823Y-109762144D01*
X148602767Y-109767748D01*
X148626987Y-109782902D01*
X148642660Y-109807940D01*
X148648647Y-109839298D01*
X148651514Y-109911804D01*
X149140000Y-109735522D01*
G37*
G36*
X149055308Y-109118747D02*
G01*
X149092845Y-109124951D01*
X149117925Y-109141817D01*
X149133867Y-109170188D01*
X149140000Y-109215040D01*
X149140000Y-109542936D01*
X149133904Y-109587047D01*
X149118025Y-109615030D01*
X149092951Y-109631728D01*
X149055308Y-109637886D01*
X148796106Y-109637886D01*
X148796106Y-109480776D01*
X149003224Y-109480776D01*
X149003224Y-109275185D01*
X148734312Y-109275185D01*
X148599551Y-109471251D01*
X148566029Y-109471251D01*
X148432733Y-109275185D01*
X148206015Y-109275185D01*
X148206015Y-109480776D01*
X148401409Y-109480776D01*
X148401409Y-109637886D01*
X148153930Y-109637886D01*
X148116446Y-109631659D01*
X148091362Y-109614709D01*
X148075391Y-109586144D01*
X148069239Y-109540921D01*
X148069239Y-109215040D01*
X148075372Y-109170188D01*
X148091313Y-109141817D01*
X148116394Y-109124951D01*
X148153930Y-109118747D01*
X148417651Y-109118747D01*
X148457922Y-109124802D01*
X148490669Y-109142260D01*
X148517791Y-109172053D01*
X148583126Y-109271094D01*
X148647117Y-109170649D01*
X148672518Y-109141853D01*
X148704500Y-109124763D01*
X148745242Y-109118747D01*
X149055308Y-109118747D01*
G37*
G36*
X161105308Y-111517654D02*
G01*
X161142683Y-111523928D01*
X161167774Y-111541053D01*
X161183809Y-111570023D01*
X161190000Y-111616023D01*
X161190000Y-111919312D01*
X161183867Y-111964163D01*
X161167925Y-111992535D01*
X161142845Y-112009401D01*
X161105308Y-112015604D01*
X160826566Y-112015604D01*
X160826566Y-111856480D01*
X161053224Y-111856480D01*
X161053224Y-111677450D01*
X160119239Y-111677450D01*
X160119239Y-111517654D01*
X161105308Y-111517654D01*
G37*
G36*
X160424237Y-110888118D02*
G01*
X160457162Y-110891575D01*
X160494173Y-110902689D01*
X160536284Y-110922984D01*
X161049316Y-111216686D01*
X161049316Y-110889462D01*
X161190000Y-110889462D01*
X161190000Y-111407928D01*
X161090348Y-111407928D01*
X160453668Y-111045899D01*
X160256015Y-111045899D01*
X160256015Y-111240561D01*
X160455317Y-111240561D01*
X160455317Y-111396998D01*
X160203930Y-111396998D01*
X160166503Y-111390747D01*
X160141416Y-111373705D01*
X160125411Y-111344929D01*
X160119239Y-111299301D01*
X160119239Y-110985754D01*
X160125409Y-110940160D01*
X160141411Y-110911401D01*
X160166499Y-110894367D01*
X160203930Y-110888118D01*
X160424237Y-110888118D01*
G37*
G36*
X142225512Y-91250770D02*
G01*
X142274971Y-91269105D01*
X142315335Y-91298644D01*
X142345804Y-91338151D01*
X142364667Y-91386862D01*
X142371389Y-91447449D01*
X142371389Y-92111789D01*
X142364643Y-92172821D01*
X142345762Y-92221625D01*
X142315335Y-92260961D01*
X142274999Y-92290286D01*
X142225540Y-92308506D01*
X142164393Y-92315000D01*
X141838573Y-92315000D01*
X141838573Y-92178224D01*
X141998430Y-92178224D01*
X142113163Y-92178224D01*
X142158167Y-92171793D01*
X142186988Y-92154912D01*
X142204390Y-92127944D01*
X142210861Y-92087060D01*
X142210861Y-91470835D01*
X142204581Y-91430331D01*
X142187775Y-91403775D01*
X142160145Y-91387272D01*
X142117254Y-91381015D01*
X141998430Y-91381015D01*
X141998430Y-92178224D01*
X141838573Y-92178224D01*
X141838573Y-91244239D01*
X142164393Y-91244239D01*
X142225512Y-91250770D01*
G37*
G36*
X142959447Y-91250409D02*
G01*
X142988206Y-91266411D01*
X143005239Y-91291499D01*
X143011489Y-91328930D01*
X143011489Y-92230308D01*
X143005285Y-92267845D01*
X142988419Y-92292925D01*
X142960048Y-92308867D01*
X142915196Y-92315000D01*
X142593467Y-92315000D01*
X142548210Y-92308846D01*
X142519628Y-92292872D01*
X142502670Y-92267787D01*
X142496441Y-92230308D01*
X142496441Y-91990645D01*
X142653551Y-91990645D01*
X142653551Y-92178224D01*
X142853036Y-92178224D01*
X142853036Y-91857777D01*
X142587300Y-91857777D01*
X142543189Y-91851682D01*
X142515205Y-91835802D01*
X142498508Y-91810728D01*
X142492350Y-91773086D01*
X142492350Y-91721001D01*
X142648788Y-91721001D01*
X142853036Y-91721001D01*
X142853036Y-91381015D01*
X142648788Y-91381015D01*
X142648788Y-91721001D01*
X142492350Y-91721001D01*
X142492350Y-91328930D01*
X142498508Y-91291288D01*
X142515205Y-91266214D01*
X142543189Y-91250334D01*
X142587300Y-91244239D01*
X142913853Y-91244239D01*
X142959447Y-91250409D01*
G37*
G36*
X141790000Y-107269234D02*
G01*
X141790000Y-107435929D01*
X141292477Y-107612151D01*
X141196001Y-107612151D01*
X141196001Y-107455041D01*
X140856015Y-107455041D01*
X140856015Y-107656542D01*
X141790000Y-107656542D01*
X141790000Y-107816399D01*
X140719239Y-107816399D01*
X140719239Y-107392210D01*
X140725373Y-107347324D01*
X140741318Y-107318935D01*
X140766399Y-107302062D01*
X140803930Y-107295856D01*
X141216823Y-107295856D01*
X141252767Y-107301460D01*
X141276987Y-107316614D01*
X141292660Y-107341652D01*
X141298647Y-107373010D01*
X141301514Y-107445516D01*
X141790000Y-107269234D01*
G37*
G36*
X141024237Y-106669556D02*
G01*
X141057162Y-106673014D01*
X141094173Y-106684127D01*
X141136284Y-106704422D01*
X141649316Y-106998124D01*
X141649316Y-106670900D01*
X141790000Y-106670900D01*
X141790000Y-107189366D01*
X141690348Y-107189366D01*
X141053668Y-106827337D01*
X140856015Y-106827337D01*
X140856015Y-107021999D01*
X141055317Y-107021999D01*
X141055317Y-107178436D01*
X140803930Y-107178436D01*
X140766503Y-107172185D01*
X140741416Y-107155144D01*
X140725411Y-107126367D01*
X140719239Y-107080739D01*
X140719239Y-106767192D01*
X140725409Y-106721598D01*
X140741411Y-106692839D01*
X140766499Y-106675805D01*
X140803930Y-106669556D01*
X141024237Y-106669556D01*
G37*
G36*
X150005308Y-102599738D02*
G01*
X150042735Y-102605989D01*
X150067823Y-102623030D01*
X150083827Y-102651807D01*
X150090000Y-102697435D01*
X150090000Y-103030765D01*
X150083904Y-103074876D01*
X150068025Y-103102860D01*
X150042951Y-103119557D01*
X150005308Y-103125715D01*
X149103930Y-103125715D01*
X149066288Y-103119557D01*
X149041214Y-103102860D01*
X149025334Y-103074876D01*
X149019239Y-103030765D01*
X149019239Y-102697435D01*
X149025411Y-102651807D01*
X149041416Y-102623030D01*
X149066503Y-102605989D01*
X149103930Y-102599738D01*
X149370949Y-102599738D01*
X149370949Y-102758923D01*
X149156015Y-102758923D01*
X149156015Y-102965858D01*
X149953224Y-102965858D01*
X149953224Y-102758923D01*
X149730474Y-102758923D01*
X149730474Y-102599738D01*
X150005308Y-102599738D01*
G37*
G36*
X150090000Y-102280757D02*
G01*
X150090000Y-102437866D01*
X149331870Y-102437866D01*
X149331870Y-102499354D01*
X149310376Y-102499354D01*
X149019239Y-102416739D01*
X149019239Y-102280757D01*
X150090000Y-102280757D01*
G37*
G36*
X142229418Y-102472993D02*
G01*
X142278877Y-102491328D01*
X142319241Y-102520867D01*
X142349710Y-102560374D01*
X142368573Y-102609085D01*
X142375295Y-102669672D01*
X142375295Y-103334012D01*
X142368549Y-103395044D01*
X142349668Y-103443848D01*
X142319241Y-103483184D01*
X142278905Y-103512509D01*
X142229446Y-103530729D01*
X142168299Y-103537223D01*
X141842479Y-103537223D01*
X141842479Y-103400447D01*
X142002336Y-103400447D01*
X142117069Y-103400447D01*
X142162073Y-103394016D01*
X142190894Y-103377135D01*
X142208296Y-103350167D01*
X142214767Y-103309283D01*
X142214767Y-102693058D01*
X142208487Y-102652554D01*
X142191681Y-102625998D01*
X142164051Y-102609495D01*
X142121160Y-102603238D01*
X142002336Y-102603238D01*
X142002336Y-103400447D01*
X141842479Y-103400447D01*
X141842479Y-102466462D01*
X142168299Y-102466462D01*
X142229418Y-102472993D01*
G37*
G36*
X143043421Y-103334012D02*
G01*
X142962150Y-103334012D01*
X142962150Y-103537223D01*
X142809803Y-103537223D01*
X142809803Y-103334012D01*
X142458704Y-103334012D01*
X142458704Y-103239063D01*
X142724440Y-102466462D01*
X142886984Y-102466462D01*
X142886984Y-102472629D01*
X142637673Y-103197236D01*
X142809803Y-103197236D01*
X142809803Y-102876790D01*
X142962150Y-102876790D01*
X142962150Y-103197236D01*
X143043421Y-103197236D01*
X143043421Y-103334012D01*
G37*
G36*
X142219650Y-93495215D02*
G01*
X142269109Y-93513550D01*
X142309473Y-93543089D01*
X142339942Y-93582596D01*
X142358805Y-93631307D01*
X142365527Y-93691894D01*
X142365527Y-94356234D01*
X142358781Y-94417266D01*
X142339900Y-94466070D01*
X142309473Y-94505406D01*
X142269137Y-94534731D01*
X142219678Y-94552951D01*
X142158531Y-94559445D01*
X141832711Y-94559445D01*
X141832711Y-94422669D01*
X141992568Y-94422669D01*
X142107301Y-94422669D01*
X142152305Y-94416238D01*
X142181126Y-94399357D01*
X142198528Y-94372389D01*
X142204999Y-94331505D01*
X142204999Y-93715280D01*
X142198719Y-93674776D01*
X142181913Y-93648220D01*
X142154283Y-93631717D01*
X142111392Y-93625460D01*
X141992568Y-93625460D01*
X141992568Y-94422669D01*
X141832711Y-94422669D01*
X141832711Y-93488684D01*
X142158531Y-93488684D01*
X142219650Y-93495215D01*
G37*
G36*
X142963031Y-93494779D02*
G01*
X142991015Y-93510659D01*
X143007712Y-93535733D01*
X143013870Y-93573375D01*
X143013870Y-93861887D01*
X143009107Y-93898104D01*
X142995521Y-93927607D01*
X142972898Y-93952013D01*
X142881307Y-94006479D01*
X142976256Y-94062227D01*
X142998267Y-94086226D01*
X143011747Y-94116487D01*
X143016556Y-94154978D01*
X143016556Y-94474753D01*
X143010353Y-94512290D01*
X142993487Y-94537370D01*
X142965115Y-94553312D01*
X142920264Y-94559445D01*
X142582781Y-94559445D01*
X142538671Y-94553349D01*
X142510687Y-94537470D01*
X142493989Y-94512396D01*
X142487832Y-94474753D01*
X142487832Y-94154978D01*
X142490951Y-94129638D01*
X142646345Y-94129638D01*
X142646345Y-94426576D01*
X142857432Y-94426576D01*
X142857432Y-94129638D01*
X142752225Y-94069432D01*
X142646345Y-94129638D01*
X142490951Y-94129638D01*
X142492576Y-94116432D01*
X142505850Y-94086173D01*
X142527460Y-94062227D01*
X142622410Y-94006479D01*
X142530880Y-93952013D01*
X142507790Y-93927168D01*
X142494027Y-93897631D01*
X142491757Y-93880694D01*
X142649093Y-93880694D01*
X142752225Y-93942914D01*
X142856028Y-93880694D01*
X142856028Y-93621552D01*
X142649093Y-93621552D01*
X142649093Y-93880694D01*
X142491757Y-93880694D01*
X142489236Y-93861887D01*
X142489236Y-93573375D01*
X142495463Y-93535891D01*
X142512413Y-93510807D01*
X142540978Y-93494836D01*
X142586201Y-93488684D01*
X142918920Y-93488684D01*
X142963031Y-93494779D01*
G37*
G36*
X142075546Y-84517437D02*
G01*
X142125005Y-84535772D01*
X142165369Y-84565311D01*
X142195838Y-84604818D01*
X142214701Y-84653529D01*
X142221423Y-84714116D01*
X142221423Y-85378456D01*
X142214677Y-85439488D01*
X142195796Y-85488292D01*
X142165369Y-85527628D01*
X142125033Y-85556953D01*
X142075574Y-85575173D01*
X142014427Y-85581667D01*
X141688607Y-85581667D01*
X141688607Y-85444891D01*
X141848464Y-85444891D01*
X141963197Y-85444891D01*
X142008201Y-85438460D01*
X142037022Y-85421579D01*
X142054424Y-85394611D01*
X142060895Y-85353727D01*
X142060895Y-84737502D01*
X142054615Y-84696998D01*
X142037809Y-84670442D01*
X142010179Y-84653939D01*
X141967288Y-84647682D01*
X141848464Y-84647682D01*
X141848464Y-85444891D01*
X141688607Y-85444891D01*
X141688607Y-84510906D01*
X142014427Y-84510906D01*
X142075546Y-84517437D01*
G37*
G36*
X142538450Y-85581667D02*
G01*
X142381341Y-85581667D01*
X142381341Y-84823537D01*
X142319853Y-84823537D01*
X142319853Y-84802043D01*
X142402468Y-84510906D01*
X142538450Y-84510906D01*
X142538450Y-85581667D01*
G37*
G36*
X143175436Y-84815904D02*
G01*
X143171979Y-84848829D01*
X143160865Y-84885840D01*
X143140570Y-84927951D01*
X142846868Y-85440983D01*
X143174092Y-85440983D01*
X143174092Y-85581667D01*
X142655626Y-85581667D01*
X142655626Y-85482015D01*
X143017655Y-84845335D01*
X143017655Y-84647682D01*
X142822993Y-84647682D01*
X142822993Y-84846984D01*
X142666556Y-84846984D01*
X142666556Y-84595597D01*
X142672807Y-84558170D01*
X142689848Y-84533083D01*
X142718625Y-84517078D01*
X142764253Y-84510906D01*
X143077800Y-84510906D01*
X143123394Y-84517076D01*
X143152153Y-84533078D01*
X143169187Y-84558166D01*
X143175436Y-84595597D01*
X143175436Y-84815904D01*
G37*
G36*
X145405308Y-95290849D02*
G01*
X145442683Y-95297123D01*
X145467774Y-95314248D01*
X145483809Y-95343218D01*
X145490000Y-95389218D01*
X145490000Y-95728715D01*
X145483848Y-95773938D01*
X145467876Y-95802503D01*
X145442792Y-95819453D01*
X145405308Y-95825680D01*
X144419239Y-95825680D01*
X144419239Y-95665823D01*
X145353224Y-95665823D01*
X145353224Y-95450645D01*
X144419239Y-95450645D01*
X144419239Y-95290849D01*
X145405308Y-95290849D01*
G37*
G36*
X144724237Y-94660275D02*
G01*
X144757162Y-94663732D01*
X144794173Y-94674846D01*
X144836284Y-94695141D01*
X145349316Y-94988843D01*
X145349316Y-94661618D01*
X145490000Y-94661618D01*
X145490000Y-95180085D01*
X145390348Y-95180085D01*
X144753668Y-94818056D01*
X144556015Y-94818056D01*
X144556015Y-95012717D01*
X144755317Y-95012717D01*
X144755317Y-95169155D01*
X144503930Y-95169155D01*
X144466503Y-95162904D01*
X144441416Y-95145862D01*
X144425411Y-95117086D01*
X144419239Y-95071458D01*
X144419239Y-94757911D01*
X144425409Y-94712317D01*
X144441411Y-94683558D01*
X144466499Y-94666524D01*
X144503930Y-94660275D01*
X144724237Y-94660275D01*
G37*
D11*
G36*
X161005308Y-105601275D02*
G01*
X161042735Y-105607526D01*
X161067823Y-105624568D01*
X161083827Y-105653344D01*
X161090000Y-105698972D01*
X161090000Y-106035050D01*
X161083904Y-106079161D01*
X161068025Y-106107145D01*
X161042951Y-106123842D01*
X161005308Y-106130000D01*
X160103930Y-106130000D01*
X160066446Y-106123773D01*
X160041362Y-106106823D01*
X160025391Y-106078258D01*
X160019239Y-106033035D01*
X160019239Y-105698972D01*
X160025411Y-105653344D01*
X160041416Y-105624568D01*
X160066503Y-105607526D01*
X160103930Y-105601275D01*
X160347501Y-105601275D01*
X160347501Y-105761804D01*
X160156015Y-105761804D01*
X160156015Y-105970143D01*
X160953224Y-105970143D01*
X160953224Y-105761804D01*
X160652316Y-105761804D01*
X160652316Y-105880689D01*
X160515540Y-105880689D01*
X160515540Y-105601275D01*
X161005308Y-105601275D01*
G37*
G36*
X161090000Y-104931805D02*
G01*
X161090000Y-105071817D01*
X160416072Y-105327967D01*
X160462885Y-105319954D01*
X160493375Y-105317770D01*
X161090000Y-105317770D01*
X161090000Y-105473475D01*
X160019239Y-105473475D01*
X160019239Y-105333463D01*
X160679488Y-105077313D01*
X160632676Y-105085326D01*
X160602185Y-105087510D01*
X160019239Y-105087510D01*
X160019239Y-104931805D01*
X161090000Y-104931805D01*
G37*
G36*
X160947821Y-104277203D02*
G01*
X160996625Y-104296084D01*
X161035961Y-104326510D01*
X161065286Y-104366847D01*
X161083506Y-104416306D01*
X161090000Y-104477453D01*
X161090000Y-104803272D01*
X160019239Y-104803272D01*
X160019239Y-104524591D01*
X160156015Y-104524591D01*
X160156015Y-104643416D01*
X160953224Y-104643416D01*
X160953224Y-104528682D01*
X160946793Y-104483679D01*
X160929912Y-104454858D01*
X160902944Y-104437456D01*
X160862060Y-104430985D01*
X160245835Y-104430985D01*
X160205331Y-104437265D01*
X160178775Y-104454071D01*
X160162272Y-104481701D01*
X160156015Y-104524591D01*
X160019239Y-104524591D01*
X160019239Y-104477453D01*
X160025770Y-104416333D01*
X160044105Y-104366875D01*
X160073644Y-104326510D01*
X160113151Y-104296041D01*
X160161862Y-104277179D01*
X160222449Y-104270457D01*
X160886789Y-104270457D01*
X160947821Y-104277203D01*
G37*
D13*
G36*
X142219650Y-86761881D02*
G01*
X142269109Y-86780216D01*
X142309473Y-86809755D01*
X142339942Y-86849262D01*
X142358805Y-86897973D01*
X142365527Y-86958560D01*
X142365527Y-87622900D01*
X142358781Y-87683932D01*
X142339900Y-87732736D01*
X142309473Y-87772072D01*
X142269137Y-87801397D01*
X142219678Y-87819617D01*
X142158531Y-87826111D01*
X141832711Y-87826111D01*
X141832711Y-87689335D01*
X141992568Y-87689335D01*
X142107301Y-87689335D01*
X142152305Y-87682904D01*
X142181126Y-87666023D01*
X142198528Y-87639055D01*
X142204999Y-87598171D01*
X142204999Y-86981946D01*
X142198719Y-86941442D01*
X142181913Y-86914886D01*
X142154283Y-86898383D01*
X142111392Y-86892126D01*
X141992568Y-86892126D01*
X141992568Y-87689335D01*
X141832711Y-87689335D01*
X141832711Y-86755350D01*
X142158531Y-86755350D01*
X142219650Y-86761881D01*
G37*
G36*
X142682554Y-87826111D02*
G01*
X142525445Y-87826111D01*
X142525445Y-87067981D01*
X142463957Y-87067981D01*
X142463957Y-87046487D01*
X142546572Y-86755350D01*
X142682554Y-86755350D01*
X142682554Y-87826111D01*
G37*
G36*
X143010817Y-87826111D02*
G01*
X142853708Y-87826111D01*
X142853708Y-87067981D01*
X142792219Y-87067981D01*
X142792219Y-87046487D01*
X142874835Y-86755350D01*
X143010817Y-86755350D01*
X143010817Y-87826111D01*
G37*
G36*
X142230395Y-100228548D02*
G01*
X142279854Y-100246883D01*
X142320218Y-100276422D01*
X142350687Y-100315929D01*
X142369550Y-100364640D01*
X142376272Y-100425227D01*
X142376272Y-101089567D01*
X142369526Y-101150599D01*
X142350645Y-101199403D01*
X142320218Y-101238739D01*
X142279882Y-101268064D01*
X142230423Y-101286284D01*
X142169276Y-101292778D01*
X141843456Y-101292778D01*
X141843456Y-101156002D01*
X142003313Y-101156002D01*
X142118046Y-101156002D01*
X142163050Y-101149571D01*
X142191871Y-101132690D01*
X142209273Y-101105722D01*
X142215744Y-101064838D01*
X142215744Y-100448613D01*
X142209464Y-100408109D01*
X142192658Y-100381553D01*
X142165028Y-100365050D01*
X142122137Y-100358793D01*
X142003313Y-100358793D01*
X142003313Y-101156002D01*
X141843456Y-101156002D01*
X141843456Y-100222017D01*
X142169276Y-100222017D01*
X142230395Y-100228548D01*
G37*
G36*
X143010937Y-101208086D02*
G01*
X143004709Y-101245565D01*
X142987751Y-101270650D01*
X142959168Y-101286624D01*
X142913912Y-101292778D01*
X142593526Y-101292778D01*
X142549416Y-101286682D01*
X142521432Y-101270803D01*
X142504734Y-101245729D01*
X142498577Y-101208086D01*
X142498577Y-100944976D01*
X142655686Y-100944976D01*
X142655686Y-101156002D01*
X142853828Y-101156002D01*
X142853828Y-100741766D01*
X142498577Y-100741766D01*
X142515674Y-100222017D01*
X143003427Y-100222017D01*
X143003427Y-100362701D01*
X142663929Y-100362701D01*
X142653671Y-100604990D01*
X142913912Y-100604990D01*
X142959168Y-100611143D01*
X142987751Y-100627118D01*
X143004709Y-100652202D01*
X143010937Y-100689681D01*
X143010937Y-101208086D01*
G37*
G36*
X142246515Y-95739659D02*
G01*
X142295974Y-95757994D01*
X142336338Y-95787533D01*
X142366807Y-95827040D01*
X142385670Y-95875751D01*
X142392392Y-95936338D01*
X142392392Y-96600678D01*
X142385646Y-96661710D01*
X142366765Y-96710514D01*
X142336338Y-96749850D01*
X142296002Y-96779175D01*
X142246543Y-96797395D01*
X142185396Y-96803889D01*
X141859576Y-96803889D01*
X141859576Y-96667113D01*
X142019433Y-96667113D01*
X142134166Y-96667113D01*
X142179170Y-96660682D01*
X142207991Y-96643801D01*
X142225393Y-96616833D01*
X142231864Y-96575949D01*
X142231864Y-95959724D01*
X142225584Y-95919220D01*
X142208778Y-95892664D01*
X142181148Y-95876161D01*
X142138257Y-95869904D01*
X142019433Y-95869904D01*
X142019433Y-96667113D01*
X141859576Y-96667113D01*
X141859576Y-95733128D01*
X142185396Y-95733128D01*
X142246515Y-95739659D01*
G37*
G36*
X143021562Y-95835588D02*
G01*
X142774999Y-96803889D01*
X142611051Y-96803889D01*
X142850836Y-95869904D01*
X142646527Y-95869904D01*
X142646527Y-96026219D01*
X142492165Y-96026219D01*
X142492165Y-95733128D01*
X143021562Y-95733128D01*
X143021562Y-95835588D01*
G37*
G36*
X151590000Y-87962395D02*
G01*
X151590000Y-88129090D01*
X151092477Y-88305312D01*
X150996001Y-88305312D01*
X150996001Y-88148202D01*
X150656015Y-88148202D01*
X150656015Y-88349703D01*
X151590000Y-88349703D01*
X151590000Y-88509560D01*
X150519239Y-88509560D01*
X150519239Y-88085371D01*
X150525373Y-88040485D01*
X150541318Y-88012096D01*
X150566399Y-87995223D01*
X150603930Y-87989017D01*
X151016823Y-87989017D01*
X151052767Y-87994621D01*
X151076987Y-88009775D01*
X151092660Y-88034813D01*
X151098647Y-88066171D01*
X151101514Y-88138677D01*
X151590000Y-87962395D01*
G37*
G36*
X150621699Y-87359298D02*
G01*
X151590000Y-87605861D01*
X151590000Y-87769809D01*
X150656015Y-87530024D01*
X150656015Y-87734333D01*
X150812330Y-87734333D01*
X150812330Y-87888694D01*
X150519239Y-87888694D01*
X150519239Y-87359298D01*
X150621699Y-87359298D01*
G37*
G36*
X159976079Y-95989261D02*
G01*
X159976079Y-96155956D01*
X159478556Y-96332178D01*
X159382080Y-96332178D01*
X159382080Y-96175068D01*
X159042094Y-96175068D01*
X159042094Y-96376569D01*
X159976079Y-96376569D01*
X159976079Y-96536426D01*
X158905318Y-96536426D01*
X158905318Y-96112237D01*
X158911452Y-96067351D01*
X158927397Y-96038962D01*
X158952478Y-96022089D01*
X158990009Y-96015883D01*
X159402902Y-96015883D01*
X159438846Y-96021487D01*
X159463066Y-96036641D01*
X159478739Y-96061679D01*
X159484726Y-96093037D01*
X159487593Y-96165543D01*
X159976079Y-95989261D01*
G37*
G36*
X159976079Y-95698306D02*
G01*
X159976079Y-95855416D01*
X159217949Y-95855416D01*
X159217949Y-95916904D01*
X159196455Y-95916904D01*
X158905318Y-95834289D01*
X158905318Y-95698306D01*
X159976079Y-95698306D01*
G37*
G36*
X159976079Y-95370044D02*
G01*
X159976079Y-95527153D01*
X159217949Y-95527153D01*
X159217949Y-95588641D01*
X159196455Y-95588641D01*
X158905318Y-95506026D01*
X158905318Y-95370044D01*
X159976079Y-95370044D01*
G37*
G36*
X145633900Y-113704698D02*
G01*
X145682704Y-113723579D01*
X145722040Y-113754006D01*
X145751365Y-113794342D01*
X145769585Y-113843801D01*
X145776079Y-113904948D01*
X145776079Y-114230768D01*
X144705318Y-114230768D01*
X144705318Y-113952087D01*
X144842094Y-113952087D01*
X144842094Y-114070911D01*
X145639303Y-114070911D01*
X145639303Y-113956178D01*
X145632872Y-113911174D01*
X145615991Y-113882353D01*
X145589023Y-113864951D01*
X145548139Y-113858480D01*
X144931914Y-113858480D01*
X144891410Y-113864760D01*
X144864854Y-113881566D01*
X144848351Y-113909196D01*
X144842094Y-113952087D01*
X144705318Y-113952087D01*
X144705318Y-113904948D01*
X144711849Y-113843829D01*
X144730184Y-113794370D01*
X144759723Y-113754006D01*
X144799230Y-113723537D01*
X144847941Y-113704674D01*
X144908528Y-113697952D01*
X145572868Y-113697952D01*
X145633900Y-113704698D01*
G37*
G36*
X145776079Y-113380925D02*
G01*
X145776079Y-113538034D01*
X145017949Y-113538034D01*
X145017949Y-113599522D01*
X144996455Y-113599522D01*
X144705318Y-113516907D01*
X144705318Y-113380925D01*
X145776079Y-113380925D01*
G37*
G36*
X155105308Y-82623551D02*
G01*
X155142683Y-82629825D01*
X155167774Y-82646950D01*
X155183809Y-82675920D01*
X155190000Y-82721920D01*
X155190000Y-83025209D01*
X155183867Y-83070060D01*
X155167925Y-83098432D01*
X155142845Y-83115298D01*
X155105308Y-83121501D01*
X154826566Y-83121501D01*
X154826566Y-82962377D01*
X155053224Y-82962377D01*
X155053224Y-82783347D01*
X154119239Y-82783347D01*
X154119239Y-82623551D01*
X155105308Y-82623551D01*
G37*
G36*
X155190000Y-82302738D02*
G01*
X155190000Y-82459847D01*
X154431870Y-82459847D01*
X154431870Y-82521336D01*
X154410376Y-82521336D01*
X154119239Y-82438720D01*
X154119239Y-82302738D01*
X155190000Y-82302738D01*
G37*
G36*
X152240000Y-102589261D02*
G01*
X152240000Y-102755956D01*
X151742477Y-102932178D01*
X151646001Y-102932178D01*
X151646001Y-102775068D01*
X151306015Y-102775068D01*
X151306015Y-102976569D01*
X152240000Y-102976569D01*
X152240000Y-103136426D01*
X151169239Y-103136426D01*
X151169239Y-102712237D01*
X151175373Y-102667351D01*
X151191318Y-102638962D01*
X151216399Y-102622089D01*
X151253930Y-102615883D01*
X151666823Y-102615883D01*
X151702767Y-102621487D01*
X151726987Y-102636641D01*
X151742660Y-102661679D01*
X151748647Y-102693037D01*
X151751514Y-102765543D01*
X152240000Y-102589261D01*
G37*
G36*
X152192845Y-101970508D02*
G01*
X152217925Y-101987374D01*
X152233867Y-102015745D01*
X152240000Y-102060597D01*
X152240000Y-102398080D01*
X152233904Y-102442190D01*
X152218025Y-102470174D01*
X152192951Y-102486871D01*
X152155308Y-102493029D01*
X151835533Y-102493029D01*
X151796987Y-102488284D01*
X151766728Y-102475010D01*
X151742782Y-102453401D01*
X151687034Y-102358451D01*
X151632568Y-102449981D01*
X151607723Y-102473071D01*
X151578186Y-102486833D01*
X151542442Y-102491625D01*
X151253930Y-102491625D01*
X151216446Y-102485398D01*
X151191362Y-102468448D01*
X151175391Y-102439883D01*
X151169239Y-102394660D01*
X151169239Y-102331768D01*
X151302107Y-102331768D01*
X151561249Y-102331768D01*
X151623469Y-102228636D01*
X151749987Y-102228636D01*
X151810193Y-102334515D01*
X152107131Y-102334515D01*
X152107131Y-102123428D01*
X151810193Y-102123428D01*
X151749987Y-102228636D01*
X151623469Y-102228636D01*
X151561249Y-102124833D01*
X151302107Y-102124833D01*
X151302107Y-102331768D01*
X151169239Y-102331768D01*
X151169239Y-102061940D01*
X151175334Y-102017830D01*
X151191214Y-101989846D01*
X151216288Y-101973148D01*
X151253930Y-101966991D01*
X151542442Y-101966991D01*
X151578659Y-101971754D01*
X151608162Y-101985340D01*
X151632568Y-102007963D01*
X151687034Y-102099554D01*
X151742782Y-102004604D01*
X151766781Y-101982594D01*
X151797042Y-101969114D01*
X151835533Y-101964304D01*
X152155308Y-101964304D01*
X152192845Y-101970508D01*
G37*
G36*
X151255308Y-110443841D02*
G01*
X151292735Y-110450092D01*
X151317823Y-110467133D01*
X151333827Y-110495910D01*
X151340000Y-110541538D01*
X151340000Y-110874868D01*
X151333904Y-110918979D01*
X151318025Y-110946963D01*
X151292951Y-110963660D01*
X151255308Y-110969818D01*
X150353930Y-110969818D01*
X150316288Y-110963660D01*
X150291214Y-110946963D01*
X150275334Y-110918979D01*
X150269239Y-110874868D01*
X150269239Y-110541538D01*
X150275411Y-110495910D01*
X150291416Y-110467133D01*
X150316503Y-110450092D01*
X150353930Y-110443841D01*
X150620949Y-110443841D01*
X150620949Y-110603026D01*
X150406015Y-110603026D01*
X150406015Y-110809961D01*
X151203224Y-110809961D01*
X151203224Y-110603026D01*
X150980474Y-110603026D01*
X150980474Y-110443841D01*
X151255308Y-110443841D01*
G37*
G36*
X150574237Y-109816137D02*
G01*
X150607162Y-109819594D01*
X150644173Y-109830708D01*
X150686284Y-109851002D01*
X151199316Y-110144704D01*
X151199316Y-109817480D01*
X151340000Y-109817480D01*
X151340000Y-110335946D01*
X151240348Y-110335946D01*
X150603668Y-109973917D01*
X150406015Y-109973917D01*
X150406015Y-110168579D01*
X150605317Y-110168579D01*
X150605317Y-110325017D01*
X150353930Y-110325017D01*
X150316503Y-110318765D01*
X150291416Y-110301724D01*
X150275411Y-110272948D01*
X150269239Y-110227319D01*
X150269239Y-109913773D01*
X150275409Y-109868178D01*
X150291411Y-109839420D01*
X150316499Y-109822386D01*
X150353930Y-109816137D01*
X150574237Y-109816137D01*
G37*
G36*
X156726079Y-103401439D02*
G01*
X156726079Y-103568134D01*
X156228556Y-103744356D01*
X156132080Y-103744356D01*
X156132080Y-103587246D01*
X155792094Y-103587246D01*
X155792094Y-103788747D01*
X156726079Y-103788747D01*
X156726079Y-103948604D01*
X155655318Y-103948604D01*
X155655318Y-103524415D01*
X155661452Y-103479529D01*
X155677397Y-103451140D01*
X155702478Y-103434267D01*
X155740009Y-103428061D01*
X156152902Y-103428061D01*
X156188846Y-103433665D01*
X156213066Y-103448819D01*
X156228739Y-103473857D01*
X156234726Y-103505215D01*
X156237593Y-103577721D01*
X156726079Y-103401439D01*
G37*
G36*
X156726079Y-103110484D02*
G01*
X156726079Y-103267594D01*
X155967949Y-103267594D01*
X155967949Y-103329082D01*
X155946455Y-103329082D01*
X155655318Y-103246467D01*
X155655318Y-103110484D01*
X156726079Y-103110484D01*
G37*
G36*
X156678919Y-102457112D02*
G01*
X156704000Y-102473986D01*
X156719944Y-102502375D01*
X156726079Y-102547260D01*
X156726079Y-102880591D01*
X156719983Y-102924701D01*
X156704104Y-102952685D01*
X156679030Y-102969383D01*
X156641387Y-102975540D01*
X155740009Y-102975540D01*
X155702525Y-102969314D01*
X155677441Y-102952364D01*
X155661470Y-102923799D01*
X155655318Y-102878576D01*
X155655318Y-102818431D01*
X155792094Y-102818431D01*
X156589303Y-102818431D01*
X156589303Y-102607344D01*
X155792094Y-102607344D01*
X155792094Y-102818431D01*
X155655318Y-102818431D01*
X155655318Y-102547260D01*
X155661452Y-102502375D01*
X155677397Y-102473986D01*
X155702478Y-102457112D01*
X155740009Y-102450906D01*
X156641387Y-102450906D01*
X156678919Y-102457112D01*
G37*
G36*
X143940000Y-115228515D02*
G01*
X143940000Y-115395210D01*
X143442477Y-115571432D01*
X143346001Y-115571432D01*
X143346001Y-115414322D01*
X143006015Y-115414322D01*
X143006015Y-115615823D01*
X143940000Y-115615823D01*
X143940000Y-115775680D01*
X142869239Y-115775680D01*
X142869239Y-115351491D01*
X142875373Y-115306605D01*
X142891318Y-115278216D01*
X142916399Y-115261343D01*
X142953930Y-115255137D01*
X143366823Y-115255137D01*
X143402767Y-115260741D01*
X143426987Y-115275895D01*
X143442660Y-115300933D01*
X143448647Y-115332291D01*
X143451514Y-115404797D01*
X143940000Y-115228515D01*
G37*
G36*
X143855308Y-114619922D02*
G01*
X143892787Y-114626151D01*
X143917872Y-114643109D01*
X143933846Y-114671691D01*
X143940000Y-114716948D01*
X143940000Y-115037334D01*
X143933904Y-115081444D01*
X143918025Y-115109428D01*
X143892951Y-115126125D01*
X143855308Y-115132283D01*
X143592198Y-115132283D01*
X143592198Y-114975174D01*
X143803224Y-114975174D01*
X143803224Y-114777032D01*
X143388988Y-114777032D01*
X143388988Y-115132283D01*
X142869239Y-115115186D01*
X142869239Y-114627433D01*
X143009923Y-114627433D01*
X143009923Y-114966931D01*
X143252212Y-114977189D01*
X143252212Y-114716948D01*
X143258365Y-114671691D01*
X143274340Y-114643109D01*
X143299424Y-114626151D01*
X143336903Y-114619922D01*
X143855308Y-114619922D01*
G37*
D11*
G36*
X158526079Y-88486011D02*
G01*
X158526079Y-88652706D01*
X158028556Y-88828928D01*
X157932080Y-88828928D01*
X157932080Y-88671818D01*
X157592094Y-88671818D01*
X157592094Y-88873319D01*
X158526079Y-88873319D01*
X158526079Y-89033176D01*
X157455318Y-89033176D01*
X157455318Y-88608987D01*
X157461452Y-88564101D01*
X157477397Y-88535712D01*
X157502478Y-88518839D01*
X157540009Y-88512633D01*
X157952902Y-88512633D01*
X157988846Y-88518237D01*
X158013066Y-88533391D01*
X158028739Y-88558429D01*
X158034726Y-88589787D01*
X158037593Y-88662293D01*
X158526079Y-88486011D01*
G37*
G36*
X158478924Y-87878188D02*
G01*
X158504004Y-87895054D01*
X158519946Y-87923425D01*
X158526079Y-87968277D01*
X158526079Y-88290006D01*
X158519925Y-88335262D01*
X158503951Y-88363845D01*
X158478866Y-88380803D01*
X158441387Y-88387031D01*
X158201724Y-88387031D01*
X158201724Y-88229922D01*
X158389303Y-88229922D01*
X158389303Y-88030437D01*
X158068856Y-88030437D01*
X158068856Y-88296173D01*
X158062761Y-88340283D01*
X158046881Y-88368267D01*
X158021807Y-88384965D01*
X157984165Y-88391122D01*
X157540009Y-88391122D01*
X157502367Y-88384965D01*
X157477293Y-88368267D01*
X157461413Y-88340283D01*
X157455318Y-88296173D01*
X157455318Y-88234685D01*
X157592094Y-88234685D01*
X157932080Y-88234685D01*
X157932080Y-88030437D01*
X157592094Y-88030437D01*
X157592094Y-88234685D01*
X157455318Y-88234685D01*
X157455318Y-87969620D01*
X157461488Y-87924026D01*
X157477490Y-87895267D01*
X157502578Y-87878233D01*
X157540009Y-87871984D01*
X158441387Y-87871984D01*
X158478924Y-87878188D01*
G37*
G36*
X159994239Y-100016268D02*
G01*
X161065000Y-100221248D01*
X161065000Y-100380373D01*
X159994239Y-100584621D01*
X159994239Y-100424092D01*
X160727395Y-100304535D01*
X160818986Y-100300444D01*
X160727395Y-100296353D01*
X159994239Y-100176124D01*
X159994239Y-100016268D01*
G37*
G36*
X161017735Y-99407698D02*
G01*
X161042823Y-99424740D01*
X161058827Y-99453516D01*
X161065000Y-99499144D01*
X161065000Y-99926081D01*
X159994239Y-99926081D01*
X159994239Y-99766224D01*
X160127107Y-99766224D01*
X160443646Y-99766224D01*
X160443646Y-99643309D01*
X160441681Y-99640561D01*
X160572606Y-99640561D01*
X160572606Y-99766224D01*
X160932131Y-99766224D01*
X160932131Y-99561976D01*
X160624935Y-99561976D01*
X160572606Y-99640561D01*
X160441681Y-99640561D01*
X160388447Y-99566128D01*
X160127107Y-99566128D01*
X160127107Y-99766224D01*
X159994239Y-99766224D01*
X159994239Y-99501892D01*
X160000334Y-99457782D01*
X160016214Y-99429798D01*
X160041288Y-99413100D01*
X160078930Y-99406943D01*
X160364450Y-99406943D01*
X160400573Y-99411059D01*
X160429138Y-99422550D01*
X160451889Y-99441076D01*
X160506172Y-99524423D01*
X160562714Y-99438328D01*
X160587008Y-99418176D01*
X160616824Y-99405827D01*
X160653817Y-99401447D01*
X160980308Y-99401447D01*
X161017735Y-99407698D01*
G37*
G36*
X160980308Y-98740587D02*
G01*
X161017683Y-98746861D01*
X161042774Y-98763986D01*
X161058809Y-98792956D01*
X161065000Y-98838956D01*
X161065000Y-99178454D01*
X161058848Y-99223676D01*
X161042876Y-99252241D01*
X161017792Y-99269192D01*
X160980308Y-99275418D01*
X159994239Y-99275418D01*
X159994239Y-99115561D01*
X160928224Y-99115561D01*
X160928224Y-98900383D01*
X159994239Y-98900383D01*
X159994239Y-98740587D01*
X160980308Y-98740587D01*
G37*
G36*
X160980308Y-98099755D02*
G01*
X161017792Y-98105981D01*
X161042876Y-98122931D01*
X161058848Y-98151497D01*
X161065000Y-98196719D01*
X161065000Y-98518509D01*
X161058867Y-98563361D01*
X161042925Y-98591732D01*
X161017845Y-98608599D01*
X160980308Y-98614802D01*
X160713290Y-98614802D01*
X160713290Y-98454945D01*
X160932131Y-98454945D01*
X160932131Y-98259612D01*
X160721106Y-98259612D01*
X160417206Y-98579936D01*
X160392974Y-98599205D01*
X160364856Y-98610782D01*
X160331660Y-98614802D01*
X160078930Y-98614802D01*
X160041394Y-98608599D01*
X160016313Y-98591732D01*
X160000372Y-98563361D01*
X159994239Y-98518509D01*
X159994239Y-98196719D01*
X160000333Y-98151356D01*
X160016112Y-98122802D01*
X160040788Y-98105932D01*
X160077526Y-98099755D01*
X160330317Y-98099755D01*
X160330317Y-98259612D01*
X160127107Y-98259612D01*
X160127107Y-98454945D01*
X160324455Y-98454945D01*
X160626950Y-98134621D01*
X160650818Y-98115481D01*
X160679341Y-98103843D01*
X160713900Y-98099755D01*
X160980308Y-98099755D01*
G37*
G36*
X160019239Y-102906353D02*
G01*
X161090000Y-103111333D01*
X161090000Y-103270458D01*
X160019239Y-103474706D01*
X160019239Y-103314177D01*
X160752395Y-103194620D01*
X160843986Y-103190529D01*
X160752395Y-103186438D01*
X160019239Y-103066209D01*
X160019239Y-102906353D01*
G37*
G36*
X161042735Y-102297783D02*
G01*
X161067823Y-102314825D01*
X161083827Y-102343601D01*
X161090000Y-102389229D01*
X161090000Y-102816166D01*
X160019239Y-102816166D01*
X160019239Y-102656309D01*
X160152107Y-102656309D01*
X160468646Y-102656309D01*
X160468646Y-102533394D01*
X160466681Y-102530646D01*
X160597606Y-102530646D01*
X160597606Y-102656309D01*
X160957131Y-102656309D01*
X160957131Y-102452061D01*
X160649935Y-102452061D01*
X160597606Y-102530646D01*
X160466681Y-102530646D01*
X160413447Y-102456213D01*
X160152107Y-102456213D01*
X160152107Y-102656309D01*
X160019239Y-102656309D01*
X160019239Y-102391977D01*
X160025334Y-102347867D01*
X160041214Y-102319883D01*
X160066288Y-102303185D01*
X160103930Y-102297028D01*
X160389450Y-102297028D01*
X160425573Y-102301144D01*
X160454138Y-102312635D01*
X160476889Y-102331161D01*
X160531172Y-102414508D01*
X160587714Y-102328413D01*
X160612008Y-102308261D01*
X160641824Y-102295912D01*
X160678817Y-102291532D01*
X161005308Y-102291532D01*
X161042735Y-102297783D01*
G37*
G36*
X161090000Y-101782286D02*
G01*
X160886789Y-101814404D01*
X160886789Y-102014561D01*
X161090000Y-102046679D01*
X161090000Y-102204460D01*
X161087252Y-102204460D01*
X160019239Y-101997464D01*
X160019239Y-101914849D01*
X160267390Y-101914849D01*
X160750013Y-101993373D01*
X160750013Y-101836935D01*
X160267390Y-101914849D01*
X160019239Y-101914849D01*
X160019239Y-101829425D01*
X161090000Y-101623833D01*
X161090000Y-101782286D01*
G37*
G36*
X160159923Y-101069891D02*
G01*
X160159923Y-101246112D01*
X161090000Y-101246112D01*
X161090000Y-101405297D01*
X160159923Y-101405297D01*
X160159923Y-101581518D01*
X160019239Y-101581518D01*
X160019239Y-101069891D01*
X160159923Y-101069891D01*
G37*
%TO.C,D6*%
D14*
X138775000Y-99626250D02*
X141460000Y-99626250D01*
X141460000Y-97706250D02*
X138775000Y-97706250D01*
X141460000Y-99626250D02*
X141460000Y-97706250D01*
%TO.C,R1*%
X138290000Y-109140436D02*
X138290000Y-109594564D01*
X139760000Y-109140436D02*
X139760000Y-109594564D01*
%TO.C,C3*%
X139513748Y-82215000D02*
X140036252Y-82215000D01*
X139513748Y-83685000D02*
X140036252Y-83685000D01*
%TO.C,D3*%
X138775000Y-106366250D02*
X141460000Y-106366250D01*
X141460000Y-104446250D02*
X138775000Y-104446250D01*
X141460000Y-106366250D02*
X141460000Y-104446250D01*
%TO.C,R6*%
X143790000Y-89589564D02*
X143790000Y-89135436D01*
X145260000Y-89589564D02*
X145260000Y-89135436D01*
%TO.C,R4*%
X147502064Y-113965000D02*
X147047936Y-113965000D01*
X147502064Y-115435000D02*
X147047936Y-115435000D01*
%TO.C,U1*%
X144945000Y-105050000D02*
X145145000Y-105050000D01*
X144945000Y-108270000D02*
X144945000Y-105050000D01*
X145145000Y-108270000D02*
X144945000Y-108270000D01*
X147965000Y-105050000D02*
X148165000Y-105050000D01*
X148165000Y-105050000D02*
X148165000Y-108270000D01*
X148165000Y-108270000D02*
X147965000Y-108270000D01*
X147965000Y-104500000D02*
X148295000Y-104260000D01*
X148295000Y-104740000D01*
X147965000Y-104500000D01*
G36*
X148295000Y-104740000D02*
G01*
X147965000Y-104500000D01*
X148295000Y-104260000D01*
X148295000Y-104740000D01*
G37*
%TO.C,D10*%
X138775000Y-90639583D02*
X141460000Y-90639583D01*
X141460000Y-88719583D02*
X138775000Y-88719583D01*
X141460000Y-90639583D02*
X141460000Y-88719583D01*
%TO.C,R12*%
X157040000Y-92014564D02*
X157040000Y-91560436D01*
X158510000Y-92014564D02*
X158510000Y-91560436D01*
%TO.C,D2*%
X142565000Y-107702500D02*
X142565000Y-110387500D01*
X144485000Y-107702500D02*
X142565000Y-107702500D01*
X144485000Y-110387500D02*
X144485000Y-107702500D01*
%TO.C,R3*%
X147540000Y-111635436D02*
X147540000Y-112089564D01*
X149010000Y-111635436D02*
X149010000Y-112089564D01*
%TO.C,J2*%
X152175000Y-115450000D02*
X152175000Y-113950000D01*
X152415000Y-107890000D02*
X152415000Y-115210000D01*
X152415000Y-115210000D02*
X159635000Y-115210000D01*
X153415000Y-106890000D02*
X158635000Y-106890000D01*
X153675000Y-115450000D02*
X152175000Y-115450000D01*
X159635000Y-115210000D02*
X159635000Y-107890000D01*
X152415000Y-107890000D02*
G75*
G02*
X153415000Y-106890000I1000000J0D01*
G01*
X158635000Y-106890000D02*
G75*
G02*
X159635000Y-107890000I0J-1000000D01*
G01*
%TO.C,D9*%
X138775000Y-92886250D02*
X141460000Y-92886250D01*
X141460000Y-90966250D02*
X138775000Y-90966250D01*
X141460000Y-92886250D02*
X141460000Y-90966250D01*
%TO.C,R2*%
X140517500Y-109140436D02*
X140517500Y-109594564D01*
X141987500Y-109140436D02*
X141987500Y-109594564D01*
%TO.C,C1*%
X148790000Y-104438748D02*
X148790000Y-104961252D01*
X150260000Y-104438748D02*
X150260000Y-104961252D01*
%TO.C,D4*%
X138775000Y-104119583D02*
X141460000Y-104119583D01*
X141460000Y-102199583D02*
X138775000Y-102199583D01*
X141460000Y-104119583D02*
X141460000Y-102199583D01*
%TO.C,D8*%
X138775000Y-95132917D02*
X141460000Y-95132917D01*
X141460000Y-93212917D02*
X138775000Y-93212917D01*
X141460000Y-95132917D02*
X141460000Y-93212917D01*
%TO.C,D12*%
X138775000Y-86146250D02*
X141460000Y-86146250D01*
X141460000Y-84226250D02*
X138775000Y-84226250D01*
X141460000Y-86146250D02*
X141460000Y-84226250D01*
%TO.C,U2*%
D10*
X146070000Y-90087500D02*
X146070000Y-91737500D01*
X146070000Y-100417500D02*
X146070000Y-98767500D01*
X147720000Y-90087500D02*
X146070000Y-90087500D01*
X147720000Y-100417500D02*
X146070000Y-100417500D01*
X154750000Y-90087500D02*
X156400000Y-90087500D01*
X154750000Y-100417500D02*
X155250000Y-100417500D01*
X155250000Y-100417500D02*
X156400000Y-99267500D01*
X156400000Y-90087500D02*
X156400000Y-91737500D01*
X156400000Y-99267500D02*
X156400000Y-98767500D01*
%TO.C,D11*%
D14*
X138775000Y-88392917D02*
X141460000Y-88392917D01*
X141460000Y-86472917D02*
X138775000Y-86472917D01*
X141460000Y-88392917D02*
X141460000Y-86472917D01*
%TO.C,D5*%
X138775000Y-101872917D02*
X141460000Y-101872917D01*
X141460000Y-99952917D02*
X138775000Y-99952917D01*
X141460000Y-101872917D02*
X141460000Y-99952917D01*
%TO.C,D7*%
X138775000Y-97379583D02*
X141460000Y-97379583D01*
X141460000Y-95459583D02*
X138775000Y-95459583D01*
X141460000Y-97379583D02*
X141460000Y-95459583D01*
%TO.C,R7*%
X149164564Y-87215000D02*
X148710436Y-87215000D01*
X149164564Y-88685000D02*
X148710436Y-88685000D01*
%TO.C,R11*%
X157290000Y-95722936D02*
X157290000Y-96177064D01*
X158760000Y-95722936D02*
X158760000Y-96177064D01*
%TO.C,D1*%
X145065000Y-110202500D02*
X145065000Y-112887500D01*
X146985000Y-110202500D02*
X145065000Y-110202500D01*
X146985000Y-112887500D02*
X146985000Y-110202500D01*
%TO.C,J1*%
X143855000Y-82700000D02*
X143855000Y-84400000D01*
X153195000Y-82700000D02*
X153195000Y-84400000D01*
%TO.C,R8*%
X151040000Y-104472936D02*
X151040000Y-104927064D01*
X152510000Y-104472936D02*
X152510000Y-104927064D01*
%TO.C,C2*%
X150040000Y-108511252D02*
X150040000Y-107988748D01*
X151510000Y-108511252D02*
X151510000Y-107988748D01*
%TO.C,R10*%
X154040000Y-102972936D02*
X154040000Y-103427064D01*
X155510000Y-102972936D02*
X155510000Y-103427064D01*
%TO.C,R5*%
X142790000Y-112885436D02*
X142790000Y-113339564D01*
X144260000Y-112885436D02*
X144260000Y-113339564D01*
%TO.C,R9*%
X155635436Y-87715000D02*
X156089564Y-87715000D01*
X155635436Y-89185000D02*
X156089564Y-89185000D01*
%TD*%
M02*
